<svg width="551" height="551" viewBox="0 0 551 551" fill="none" xmlns="http://www.w3.org/2000/svg">
<circle cx="275.469" cy="275.246" r="267.5" fill="#1C435C" stroke="white" stroke-width="15"/>
<path d="M125.469 165.579C125.469 156.743 132.633 149.579 141.469 149.579H409.469C418.306 149.579 425.469 156.743 425.469 165.579V214.024H125.469V165.579Z" fill="#7D8F9B"/>
<path d="M125.469 214.024H425.469V404.246C425.469 413.083 418.306 420.246 409.469 420.246H141.469C132.633 420.246 125.469 413.083 125.469 404.246V214.024Z" fill="#D1D8DC"/>
<rect x="172.358" y="130.246" width="38.6667" height="38.6667" rx="4" fill="#143245"/>
<rect x="339.914" y="130.246" width="38.6667" height="38.6667" rx="4" fill="#143245"/>
<rect x="199.425" y="267.595" width="38.6667" height="38.6667" rx="4" fill="#143245"/>
<rect x="142.713" y="328.008" width="38.6667" height="38.6667" rx="4" fill="#94A3AD"/>
<rect x="369.558" y="328.008" width="38.6667" height="38.6667" rx="4" fill="#C4C4C4"/>
<rect x="312.847" y="267.595" width="38.6667" height="38.6667" rx="4" fill="#C4C4C4"/>
<rect x="256.136" y="328.008" width="38.6667" height="38.6667" rx="4" fill="#143245"/>
<rect x="256.136" y="267.595" width="38.6667" height="38.6667" rx="4" fill="#94A3AD"/>
<rect x="199.425" y="328.008" width="38.6667" height="38.6667" rx="4" fill="#C4C4C4"/>
<rect x="369.558" y="267.595" width="38.6667" height="38.6667" rx="4" fill="#143245"/>
<rect x="312.847" y="328.008" width="38.6667" height="38.6667" rx="4" fill="#94A3AD"/>
</svg>
