<svg width="83" height="83" viewBox="0 0 83 83" fill="none" xmlns="http://www.w3.org/2000/svg">
<path d="M41.5001 0C33.2921 0 25.2685 2.43394 18.4438 6.99402C11.6192 11.5541 6.30005 18.0355 3.15901 25.6186C0.0179771 33.2018 -0.803856 41.546 0.797431 49.5962C2.39872 57.6464 6.35122 65.041 12.1551 70.8449C17.959 76.6488 25.3536 80.6013 33.4038 82.2026C41.454 83.8039 49.7983 82.982 57.3814 79.841C64.9646 76.6999 71.446 71.3808 76.0061 64.5561C80.5661 57.7315 83 49.7079 83 41.5C82.9678 30.5034 78.5852 19.9664 70.8094 12.1906C63.0336 4.41483 52.4966 0.032189 41.5001 0ZM41.5001 12.45C43.9624 12.45 46.3695 13.1802 48.4169 14.5482C50.4643 15.9162 52.06 17.8606 53.0023 20.1356C53.9446 22.4105 54.1912 24.9138 53.7108 27.3289C53.2304 29.7439 52.0447 31.9623 50.3035 33.7035C48.5624 35.4446 46.3439 36.6304 43.9289 37.1108C41.5138 37.5912 39.0105 37.3446 36.7356 36.4023C34.4607 35.46 32.5162 33.8642 31.1482 31.8169C29.7802 29.7695 29.05 27.3624 29.05 24.9C29.061 21.6014 30.3763 18.4411 32.7088 16.1087C35.0412 13.7762 38.2015 12.461 41.5001 12.45ZM41.5001 72.3855C36.5818 72.3631 31.7433 71.1411 27.4042 68.8255C23.0652 66.51 19.3565 63.1708 16.6 59.0976C16.7995 50.7976 33.2001 46.2286 41.5001 46.2286C49.8 46.2286 66.2005 50.7976 66.4 59.0976C63.6404 63.1677 59.9311 66.5046 55.5927 68.8197C51.2543 71.1349 46.4175 72.3588 41.5001 72.3855Z" fill="#043347"/>
</svg>
