<svg width="67" height="79" viewBox="0 0 67 79" fill="none" xmlns="http://www.w3.org/2000/svg">
<path d="M14.8701 78.309V34.8646C14.8701 34.597 14.9764 34.3404 15.1656 34.1512C15.3548 33.962 15.6114 33.8557 15.879 33.8557H20.3812C20.6487 33.8557 20.9053 33.962 21.0945 34.1512C21.2837 34.3404 21.39 34.597 21.39 34.8646V78.4222L14.8701 78.309Z" fill="#05445E"/>
<path d="M29.7401 78.4451V43.901C29.7401 43.6334 29.8464 43.3768 30.0356 43.1876C30.2248 42.9984 30.4814 42.8921 30.749 42.8921H35.2511C35.5187 42.8921 35.7753 42.9984 35.9645 43.1876C36.1537 43.3768 36.26 43.6334 36.26 43.901V78.3708L29.7401 78.4451Z" fill="#3F3D56"/>
<path d="M3.31715 37.4038C3.25088 37.4038 3.18603 37.3846 3.13044 37.3485C3.07485 37.3124 3.0309 37.261 3.00389 37.2005C2.97688 37.14 2.96797 37.0729 2.97824 37.0075C2.98851 36.942 3.01751 36.8809 3.06175 36.8316L18.1154 20.041L32.9303 28.3601L47.8333 2.68103L63.0153 15.177C63.0501 15.2056 63.079 15.2408 63.1002 15.2806C63.1214 15.3204 63.1346 15.364 63.139 15.4088C63.1434 15.4537 63.1388 15.499 63.1257 15.5421C63.1126 15.5853 63.0911 15.6254 63.0624 15.6602C63.0338 15.695 62.9985 15.7238 62.9587 15.745C62.9189 15.7662 62.8753 15.7793 62.8305 15.7837C62.7856 15.788 62.7403 15.7835 62.6972 15.7703C62.6541 15.7571 62.6139 15.7356 62.5792 15.7069L48.0212 3.72457L33.1842 29.2898L18.2591 20.9088L3.57275 37.2897C3.5406 37.3256 3.5012 37.3544 3.45715 37.3741C3.4131 37.3937 3.36539 37.4039 3.31715 37.4038Z" fill="#05445E"/>
<path d="M3.26008 40.2633C5.02892 40.2633 6.46285 38.8294 6.46285 37.0606C6.46285 35.2917 5.02892 33.8578 3.26008 33.8578C1.49124 33.8578 0.0573111 35.2917 0.0573111 37.0606C0.0573111 38.8294 1.49124 40.2633 3.26008 40.2633Z" fill="#189AB4"/>
<path d="M18.1301 23.6776C19.8989 23.6776 21.3328 22.2437 21.3328 20.4749C21.3328 18.706 19.8989 17.2721 18.1301 17.2721C16.3612 17.2721 14.9273 18.706 14.9273 20.4749C14.9273 22.2437 16.3612 23.6776 18.1301 23.6776Z" fill="#189AB4"/>
<path d="M33.0001 32.0277C34.7689 32.0277 36.2028 30.5938 36.2028 28.825C36.2028 27.0561 34.7689 25.6222 33.0001 25.6222C31.2312 25.6222 29.7973 27.0561 29.7973 28.825C29.7973 30.5938 31.2312 32.0277 33.0001 32.0277Z" fill="#189AB4"/>
<path d="M63.2028 19.4055C64.9716 19.4055 66.4055 17.9716 66.4055 16.2028C66.4055 14.4339 64.9716 13 63.2028 13C61.4339 13 60 14.4339 60 16.2028C60 17.9716 61.4339 19.4055 63.2028 19.4055Z" fill="#189AB4"/>
<path d="M47.8701 6.40553C49.6389 6.40553 51.0728 4.97161 51.0728 3.20277C51.0728 1.43393 49.6389 0 47.8701 0C46.1012 0 44.6673 1.43393 44.6673 3.20277C44.6673 4.97161 46.1012 6.40553 47.8701 6.40553Z" fill="#189AB4"/>
<path d="M59.4801 78.291V28.2187C59.4801 27.5766 59.9318 27.0559 60.4889 27.0559H64.9911C65.5483 27.0559 66 27.5765 66 28.2187V78.4221L59.4801 78.291Z" fill="#189AB4"/>
<path d="M0 78.3592V54.1851C0 53.8751 0.451705 53.6237 1.00887 53.6237H5.51105C6.06822 53.6237 6.51992 53.8753 6.51992 54.1851V78.4222L0 78.3592Z" fill="#189AB4"/>
<path d="M44.61 78.2741V21.4513C44.61 20.7225 45.0617 20.1317 45.6189 20.1317H50.121C50.6782 20.1317 51.1299 20.7225 51.1299 21.4513V78.4222L44.61 78.2741Z" fill="#05445E"/>
</svg>
