<svg width="83" height="83" viewBox="0 0 83 83" fill="none" xmlns="http://www.w3.org/2000/svg">
<path d="M41.5 83C64.4198 83 83 64.4198 83 41.5C83 18.5802 64.4198 0 41.5 0C18.5802 0 0 18.5802 0 41.5C0 64.4198 18.5802 83 41.5 83Z" fill="#043347"/>
<path d="M27.5355 34.6066C25.5829 32.654 25.5829 29.4881 27.5355 27.5355C29.4882 25.5829 32.654 25.5829 34.6066 27.5355L45.2132 38.1421L55.8198 48.7487C57.7724 50.7013 57.7724 53.8672 55.8198 55.8198C53.8672 57.7724 50.7014 57.7724 48.7487 55.8198L27.5355 34.6066Z" fill="#ffffff"/>
<path d="M34.6066 55.8198C32.654 57.7724 29.4881 57.7724 27.5355 55.8198C25.5829 53.8672 25.5829 50.7014 27.5355 48.7487L38.1421 38.1421L48.7487 27.5355C50.7013 25.5829 53.8672 25.5829 55.8198 27.5355C57.7724 29.4882 57.7724 32.654 55.8198 34.6066L34.6066 55.8198Z" fill="#ffffff"/>
</svg>
