<svg xmlns="http://www.w3.org/2000/svg" version="1.1" id="Layer_1" x="0px" y="0px" viewBox="0 0 512 512" style="enable-background:new 0 0 512 512;" xml:space="preserve">
<path style="fill: #78909C;" d="M382.398,122.923h-6.948c-21.99,0-39.816-17.826-39.816-39.816V50.505  c0-21.989,17.826-39.816,39.816-39.816h6.948c21.99,0,39.816,17.827,39.816,39.816v32.601  C422.214,105.097,404.388,122.923,382.398,122.923z"/>
	<path style="fill:#ECF0F1;" d="M306.124,315.324c-15.875,0-28.745-12.801-28.745-28.593V182.514l19.775-59.591h123.409  c33.085,0,59.906,26.68,59.906,59.591v104.217c0,15.792-12.869,28.593-28.745,28.593H306.124z"/>
	<path style="fill: #cfd8dc;" d="M440.385,218.589v257.782c0,13.774-11.167,24.94-24.941,24.94h-11.579  c-13.775,0-24.94-11.167-24.94-24.94V359.148v-0.267v117.49c0,13.775-11.167,24.94-24.941,24.94h-11.579  c-13.776,0-24.943-11.167-24.943-24.94V218.589H440.385z"/>
	<polygon style="fill:#ECF0F1;" points="440.385,218.592 440.385,283.527 378.913,314.792 317.462,283.677 317.462,218.592 "/>
	<path style="fill: #78909C;" d="M129.604,122.923h6.948c21.99,0,39.816-17.826,39.816-39.816V50.505  c0-21.989-17.826-39.816-39.816-39.816h-6.948c-21.99,0-39.816,17.827-39.816,39.816v32.601  C89.788,105.097,107.614,122.923,129.604,122.923z"/>
	<path style="fill:#ECF0F1;" d="M205.878,315.324c15.875,0,28.745-12.801,28.745-28.593V182.514l-19.775-59.591H91.44  c-33.085,0-59.906,26.68-59.906,59.591v104.217c0,15.792,12.869,28.593,28.745,28.593H205.878z"/>
	<path style="fill: #cfd8dc;" d="M71.617,218.589v257.782c0,13.774,11.167,24.94,24.94,24.94h11.579  c13.775,0,24.94-11.167,24.94-24.94V359.148v-0.267v117.49c0,13.775,11.167,24.94,24.94,24.94h11.579  c13.776,0,24.943-11.167,24.943-24.94V218.589H71.617z"/>
	<polygon style="fill:#ECF0F1;" points="71.617,218.592 71.617,283.527 133.089,314.792 194.54,283.677 194.54,218.592 "/>
	<path style="fill: #CFD8DC;" d="M183.201,315.324c-15.875,0-28.745-12.801-28.745-28.593V182.514  c0-32.911,26.821-59.591,59.906-59.591h83.277c33.085,0,59.906,26.68,59.906,59.591v104.217c0,15.792-12.869,28.593-28.745,28.593  H183.201z"/>
	<path style="fill: #cfd8dc;" d="M317.462,218.589v257.782c0,13.774-11.167,24.94-24.94,24.94h-11.579  c-13.775,0-24.94-11.167-24.94-24.94V359.148v-0.267v117.49c0,13.775-11.167,24.94-24.941,24.94h-11.579  c-13.776,0-24.943-11.167-24.943-24.94V218.589H317.462z"/>
	<path style="fill: #78909C;" d="M259.475,122.923h-6.948c-21.99,0-39.816-17.826-39.816-39.816V50.505  c0-21.989,17.826-39.816,39.816-39.816h6.948c21.99,0,39.816,17.827,39.816,39.816v32.601  C299.291,105.097,281.465,122.923,259.475,122.923z"/>
	<polygon style="fill:#ECF0F1;" points="299.754,122.923 256.001,194.717 212.248,122.923 "/>
	<polygon style="fill: #CFD8DC;" points="317.462,218.592 317.462,283.527 255.99,314.792 194.54,283.677 194.54,218.592 "/>
	<g>
	<circle style="fill:#231F20;" cx="256.001" cy="232.132" r="10.689"/>
		<circle style="fill:#231F20;" cx="256.001" cy="268.111" r="10.689"/>
		<path style="fill:#231F20;" d="M423.565,112.31c5.87-8.252,9.338-18.327,9.338-29.203V50.505C432.903,22.656,410.247,0,382.398,0   h-6.948c-27.849,0-50.505,22.656-50.505,50.505v32.601c0,10.843,3.446,20.889,9.284,29.127h-33.534   c5.838-8.238,9.285-18.285,9.285-29.127V50.505C309.98,22.656,287.324,0,259.475,0h-6.948c-27.849,0-50.505,22.656-50.505,50.505   v32.601c0,10.843,3.447,20.889,9.287,29.127h-33.534c5.837-8.238,9.283-18.285,9.283-29.127V50.505   C187.057,22.656,164.401,0,136.552,0h-6.948c-27.849,0-50.505,22.656-50.505,50.505v32.601c0,10.876,3.467,20.951,9.338,29.203   c-37.537,1.572-67.593,32.454-67.593,70.204v104.217c0,21.66,17.689,39.282,39.434,39.282c0.219,0,0.434-0.019,0.65-0.033v150.391   c0,19.646,15.983,35.629,35.629,35.629h11.579c9.701,0,18.509-3.897,24.94-10.208c6.432,6.311,15.24,10.208,24.94,10.208h11.579   c9.703,0,18.498-3.914,24.93-10.228c6.433,6.32,15.243,10.228,24.952,10.228h11.579c9.701,0,18.509-3.897,24.941-10.208   c6.432,6.311,15.24,10.208,24.94,10.208h11.58c9.709,0,18.52-3.908,24.952-10.228c6.43,6.314,15.225,10.228,24.929,10.228h11.58   c9.7,0,18.509-3.897,24.94-10.208c6.432,6.311,15.24,10.208,24.94,10.208h11.58c19.646,0,35.629-15.983,35.629-35.629V325.979   c0.216,0.013,0.431,0.033,0.65,0.033c21.743,0,39.434-17.622,39.434-39.282V182.514   C491.158,144.763,461.102,113.882,423.565,112.31z M346.323,50.505c0-16.061,13.067-29.127,29.127-29.127h6.948   c16.06,0,29.127,13.066,29.127,29.127v32.601c0,16.061-13.067,29.127-29.127,29.127h-6.948c-16.06,0-29.127-13.066-29.127-29.127   V50.505z M223.4,50.505c0-16.061,13.066-29.127,29.127-29.127h6.948c16.06,0,29.127,13.066,29.127,29.127v32.601   c0,16.061-13.067,29.127-29.127,29.127h-6.948c-16.061,0-29.127-13.066-29.127-29.127V50.505z M280.722,133.612l-24.721,40.565   l-24.721-40.565H280.722z M100.477,50.505c0-16.061,13.066-29.127,29.127-29.127h6.948c16.061,0,29.127,13.066,29.127,29.127   v32.601c0,16.061-13.066,29.127-29.127,29.127h-6.948c-16.061,0-29.127-13.066-29.127-29.127V50.505z M71.617,207.9   c-5.903,0-10.689,4.785-10.689,10.689v0.003v86.075c-0.216-0.013-0.431-0.033-0.65-0.033c-9.956,0-18.056-8.032-18.056-17.904   V182.512c0-26.965,22.079-48.902,49.217-48.902h72.284c-12.341,12.659-19.955,29.909-19.955,48.902V286.73   c0,3.46,0.456,6.815,1.303,10.014l-11.971,6.062l-50.795-25.833v-58.38v-0.004C82.306,212.685,77.52,207.9,71.617,207.9z    M169.599,490.622H158.02c-7.859,0-14.252-6.393-14.252-14.252v-117.49c0-5.904-4.785-10.689-10.689-10.689   c-5.903,0-10.689,4.785-10.689,10.689v117.49c0,7.858-6.393,14.252-14.252,14.252H96.557c-7.858,0-14.252-6.393-14.252-14.252   V300.957l45.938,23.364c1.522,0.774,3.184,1.161,4.845,1.161c1.655,0,3.31-0.384,4.829-1.153l18.111-9.171   c7.079,6.717,16.646,10.855,27.171,10.855c0.219,0,0.434-0.019,0.65-0.033V476.37C183.851,484.229,177.458,490.622,169.599,490.622   z M306.773,476.371c0,7.858-6.393,14.252-14.252,14.252h-11.58c-7.859,0-14.252-6.393-14.252-14.252v-117.49   c0-5.904-4.786-10.689-10.689-10.689c-5.903,0-10.689,4.785-10.689,10.689v117.49c0,7.858-6.393,14.252-14.252,14.252h-11.579   c-7.859,0-14.252-6.393-14.252-14.252v-175.3l45.934,23.258c1.519,0.769,3.174,1.153,4.829,1.153c1.662,0,3.323-0.387,4.845-1.161   l45.936-23.365V476.371z M306.773,218.589v0.003v58.38l-50.794,25.834l-50.751-25.697v-58.517v-0.003   c0-5.903-4.785-10.689-10.689-10.689c-5.904,0-10.689,4.785-10.689,10.689v0.003v86.075c-0.216-0.013-0.431-0.033-0.65-0.033   c-9.956,0-18.056-8.032-18.056-17.904V182.512c0-24.346,18.001-44.588,41.472-48.292l40.257,66.058   c1.94,3.184,5.399,5.126,9.127,5.126c3.728,0,7.187-1.942,9.127-5.126l40.257-66.058c23.471,3.703,41.472,23.945,41.472,48.292   V286.73c0,9.872-8.099,17.904-18.056,17.904c-0.219,0-0.434,0.019-0.65,0.033v-86.075v-0.003c0-5.903-4.786-10.689-10.689-10.689   S306.773,212.685,306.773,218.589z M429.696,476.371c0,7.858-6.393,14.252-14.252,14.252h-11.58   c-7.858,0-14.252-6.393-14.252-14.252v-117.49c0-5.904-4.786-10.689-10.689-10.689s-10.689,4.785-10.689,10.689v117.49   c0,7.858-6.393,14.252-14.252,14.252h-11.58c-7.858,0-14.252-6.393-14.252-14.252V325.979c0.216,0.013,0.431,0.033,0.65,0.033   c10.525,0,20.092-4.137,27.171-10.855l18.111,9.171c1.519,0.769,3.174,1.153,4.829,1.153c1.662,0,3.323-0.387,4.845-1.161   l45.938-23.365V476.371z M469.78,286.731c0,9.872-8.099,17.904-18.056,17.904c-0.219,0-0.434,0.019-0.65,0.033v-86.075v-0.004   c0-5.903-4.786-10.689-10.689-10.689s-10.689,4.785-10.689,10.689v0.003v58.38l-50.794,25.834l-11.972-6.062   c0.848-3.198,1.303-6.554,1.303-10.014V182.513c0-18.993-7.615-36.243-19.956-48.902h72.284c27.139,0,49.217,21.937,49.217,48.902   v104.218H469.78z"/>
</g>
	<g>
</g>
	<g>
</g>
	<g>
</g>
	<g>
</g>
	<g>
</g>
	<g>
</g>
	<g>
</g>
	<g>
</g>
	<g>
</g>
	<g>
</g>
	<g>
</g>
	<g>
</g>
	<g>
</g>
	<g>
</g>
	<g>
</g>
</svg>