<svg width="551" height="551" viewBox="0 0 551 551" fill="none" xmlns="http://www.w3.org/2000/svg">
<circle cx="275.653" cy="275.231" r="267.5" fill="#1C435C" stroke="white" stroke-width="15"/>
<g clip-path="url(#clip0_7_77)">
<path d="M355.886 190.758H351.476C337.517 190.758 326.202 179.443 326.202 165.484V144.79C326.202 130.832 337.517 119.516 351.476 119.516H355.886C369.845 119.516 381.16 130.832 381.16 144.79V165.484C381.16 179.443 369.845 190.758 355.886 190.758Z" fill="#78909C"/>
<path d="M307.47 312.888C297.393 312.888 289.224 304.762 289.224 294.738V228.585L301.776 190.758H380.112C401.113 190.758 418.138 207.694 418.138 228.585V294.738C418.138 304.762 409.97 312.888 399.892 312.888H307.47Z" fill="#ECF0F1"/>
<path d="M392.694 251.484V415.115C392.694 423.858 385.606 430.946 376.863 430.946H369.513C360.769 430.946 353.682 423.857 353.682 415.115V340.706V340.536V415.115C353.682 423.859 346.593 430.946 337.85 430.946H330.5C321.756 430.946 314.667 423.857 314.667 415.115V251.484H392.694Z" fill="#CFD8DC"/>
<path d="M392.694 251.486V292.704L353.674 312.55L314.667 292.799V251.486H392.694Z" fill="#ECF0F1"/>
<path d="M195.421 190.758H199.832C213.79 190.758 225.106 179.443 225.106 165.484V144.79C225.106 130.832 213.79 119.516 199.832 119.516H195.421C181.463 119.516 170.148 130.832 170.148 144.79V165.484C170.148 179.443 181.463 190.758 195.421 190.758Z" fill="#78909C"/>
<path d="M243.838 312.888C253.914 312.888 262.084 304.762 262.084 294.738V228.585L249.531 190.758H171.196C150.195 190.758 133.17 207.694 133.17 228.585V294.738C133.17 304.762 141.339 312.888 151.416 312.888H243.838Z" fill="#ECF0F1"/>
<path d="M158.613 251.484V415.115C158.613 423.858 165.702 430.946 174.444 430.946H181.794C190.538 430.946 197.625 423.857 197.625 415.115V340.706V340.536V415.115C197.625 423.859 204.714 430.946 213.456 430.946H220.806C229.551 430.946 236.639 423.857 236.639 415.115V251.484H158.613Z" fill="#CFD8DC"/>
<path d="M158.613 251.486V292.704L197.633 312.55L236.64 292.799V251.486H158.613Z" fill="#ECF0F1"/>
<path d="M229.443 312.888C219.366 312.888 211.197 304.762 211.197 294.738V228.585C211.197 207.694 228.222 190.758 249.223 190.758H302.084C323.085 190.758 340.11 207.694 340.11 228.585V294.738C340.11 304.762 331.942 312.888 321.864 312.888H229.443Z" fill="#CFD8DC"/>
<path d="M314.667 251.484V415.115C314.667 423.858 307.579 430.946 298.836 430.946H291.486C282.742 430.946 275.655 423.857 275.655 415.115V340.706V340.536V415.115C275.655 423.859 268.567 430.946 259.823 430.946H252.473C243.729 430.946 236.641 423.857 236.641 415.115V251.484H314.667Z" fill="#CFD8DC"/>
<path d="M277.859 190.758H273.449C259.49 190.758 248.175 179.443 248.175 165.484V144.79C248.175 130.832 259.49 119.516 273.449 119.516H277.859C291.817 119.516 303.133 130.832 303.133 144.79V165.484C303.133 179.443 291.817 190.758 277.859 190.758Z" fill="#78909C"/>
<path d="M303.427 190.758L275.654 236.331L247.881 190.758H303.427Z" fill="#ECF0F1"/>
<path d="M314.667 251.486V292.704L275.647 312.55L236.641 292.799V251.486H314.667Z" fill="#CFD8DC"/>
<path d="M275.654 266.865C279.401 266.865 282.439 263.828 282.439 260.08C282.439 256.333 279.401 253.295 275.654 253.295C271.907 253.295 268.869 256.333 268.869 260.08C268.869 263.828 271.907 266.865 275.654 266.865Z" fill="white"/>
<path d="M275.654 289.704C279.401 289.704 282.439 286.666 282.439 282.919C282.439 279.171 279.401 276.134 275.654 276.134C271.907 276.134 268.869 279.171 268.869 282.919C268.869 286.666 271.907 289.704 275.654 289.704Z" fill="white"/>
<mask id="path-17-inside-1_7_77" fill="white">
<path d="M382.018 184.021C385.744 178.783 387.945 172.388 387.945 165.484V144.79C387.945 127.112 373.564 112.731 355.886 112.731H351.476C333.798 112.731 319.417 127.112 319.417 144.79V165.484C319.417 172.367 321.605 178.743 325.31 183.973H304.024C307.73 178.743 309.918 172.366 309.918 165.484V144.79C309.918 127.112 295.537 112.731 277.859 112.731H273.449C255.771 112.731 241.39 127.112 241.39 144.79V165.484C241.39 172.367 243.578 178.743 247.285 183.973H225.999C229.704 178.743 231.891 172.366 231.891 165.484V144.79C231.891 127.112 217.509 112.731 199.832 112.731H195.421C177.744 112.731 163.363 127.112 163.363 144.79V165.484C163.363 172.388 165.563 178.783 169.29 184.021C145.463 185.019 126.384 204.622 126.384 228.584V294.737C126.384 308.486 137.613 319.672 151.416 319.672C151.555 319.672 151.691 319.66 151.828 319.651V415.114C151.828 427.585 161.974 437.73 174.444 437.73H181.794C187.952 437.73 193.543 435.257 197.625 431.251C201.708 435.257 207.299 437.73 213.456 437.73H220.806C226.965 437.73 232.548 435.246 236.631 431.238C240.714 435.25 246.307 437.73 252.47 437.73H259.82C265.977 437.73 271.569 435.257 275.651 431.251C279.734 435.257 285.325 437.73 291.482 437.73H298.833C304.996 437.73 310.589 435.25 314.672 431.238C318.753 435.246 324.336 437.73 330.496 437.73H337.846C344.004 437.73 349.595 435.257 353.677 431.251C357.76 435.257 363.351 437.73 369.508 437.73H376.859C389.33 437.73 399.475 427.585 399.475 415.114V319.651C399.612 319.659 399.749 319.672 399.888 319.672C413.689 319.672 424.919 308.486 424.919 294.737V228.585C424.923 204.622 405.845 185.019 382.018 184.021ZM332.987 144.79C332.987 134.595 341.282 126.301 351.476 126.301H355.886C366.081 126.301 374.375 134.595 374.375 144.79V165.484C374.375 175.679 366.081 183.973 355.886 183.973H351.476C341.282 183.973 332.987 175.679 332.987 165.484V144.79ZM254.96 144.79C254.96 134.595 263.254 126.301 273.449 126.301H277.859C288.053 126.301 296.348 134.595 296.348 144.79V165.484C296.348 175.679 288.053 183.973 277.859 183.973H273.449C263.254 183.973 254.96 175.679 254.96 165.484V144.79ZM291.346 197.543L275.654 223.293L259.962 197.543H291.346ZM176.933 144.79C176.933 134.595 185.226 126.301 195.421 126.301H199.832C210.027 126.301 218.321 134.595 218.321 144.79V165.484C218.321 175.679 210.027 183.973 199.832 183.973H195.421C185.226 183.973 176.933 175.679 176.933 165.484V144.79V144.79ZM158.613 244.699C154.866 244.699 151.828 247.736 151.828 251.484V251.486V306.123C151.691 306.115 151.555 306.102 151.416 306.102C145.096 306.102 139.954 301.004 139.954 294.737V228.583C139.954 211.467 153.969 197.542 171.196 197.542H217.079C209.245 205.577 204.412 216.527 204.412 228.583V294.737C204.412 296.934 204.702 299.063 205.239 301.094L197.641 304.942L165.398 288.544V251.486V251.484C165.398 247.736 162.36 244.699 158.613 244.699ZM220.809 424.161H213.459C208.47 424.161 204.412 420.103 204.412 415.114V340.536C204.412 336.788 201.375 333.751 197.627 333.751C193.88 333.751 190.842 336.788 190.842 340.536V415.114C190.842 420.102 186.784 424.161 181.796 424.161H174.444C169.456 424.161 165.398 420.103 165.398 415.114V303.768L194.557 318.599C195.524 319.09 196.579 319.336 197.633 319.336C198.683 319.336 199.734 319.092 200.698 318.604L212.194 312.782C216.688 317.046 222.761 319.673 229.442 319.673C229.581 319.673 229.717 319.661 229.854 319.652V415.114C229.856 420.103 225.797 424.161 220.809 424.161ZM307.882 415.115C307.882 420.103 303.824 424.162 298.835 424.162H291.485C286.496 424.162 282.438 420.104 282.438 415.115V340.536C282.438 336.789 279.4 333.751 275.653 333.751C271.906 333.751 268.868 336.789 268.868 340.536V415.115C268.868 420.103 264.81 424.162 259.822 424.162H252.472C247.483 424.162 243.425 420.104 243.425 415.115V303.841L272.582 318.604C273.546 319.092 274.597 319.336 275.648 319.336C276.702 319.336 277.757 319.09 278.723 318.599L307.882 303.767V415.115H307.882ZM307.882 251.484V251.486V288.543L275.64 304.942L243.425 288.63V251.486V251.484C243.425 247.737 240.388 244.699 236.64 244.699C232.892 244.699 229.855 247.736 229.855 251.484V251.486V306.123C229.718 306.115 229.581 306.102 229.442 306.102C223.123 306.102 217.981 301.004 217.981 294.737V228.583C217.981 213.129 229.407 200.28 244.306 197.929L269.86 239.861C271.091 241.882 273.287 243.114 275.653 243.114C278.02 243.114 280.215 241.882 281.447 239.861L307 197.929C321.899 200.28 333.325 213.129 333.325 228.583V294.737C333.325 301.004 328.185 306.102 321.864 306.102C321.725 306.102 321.589 306.114 321.452 306.123V251.486V251.484C321.452 247.737 318.414 244.699 314.667 244.699C310.92 244.699 307.882 247.736 307.882 251.484ZM385.909 415.115C385.909 420.103 381.851 424.162 376.863 424.162H369.512C364.524 424.162 360.466 420.104 360.466 415.115V340.536C360.466 336.789 357.428 333.751 353.681 333.751C349.934 333.751 346.896 336.789 346.896 340.536V415.115C346.896 420.103 342.837 424.162 337.849 424.162H330.498C325.51 424.162 321.452 420.104 321.452 415.115V319.651C321.589 319.659 321.725 319.672 321.864 319.672C328.545 319.672 334.618 317.046 339.111 312.782L350.608 318.603C351.572 319.091 352.622 319.335 353.673 319.335C354.728 319.335 355.782 319.089 356.748 318.598L385.908 303.767V415.115H385.909ZM411.353 294.738C411.353 301.004 406.212 306.103 399.892 306.103C399.753 306.103 399.617 306.115 399.479 306.124V251.486V251.484C399.479 247.737 396.442 244.699 392.694 244.699C388.947 244.699 385.909 247.736 385.909 251.484V251.486V288.543L353.667 304.942L346.068 301.094C346.606 299.064 346.895 296.934 346.895 294.737V228.584C346.895 216.528 342.061 205.578 334.227 197.543H380.111C397.338 197.543 411.352 211.467 411.352 228.584V294.738H411.353Z"/>
</mask>
<path d="M382.018 184.021C385.744 178.783 387.945 172.388 387.945 165.484V144.79C387.945 127.112 373.564 112.731 355.886 112.731H351.476C333.798 112.731 319.417 127.112 319.417 144.79V165.484C319.417 172.367 321.605 178.743 325.31 183.973H304.024C307.73 178.743 309.918 172.366 309.918 165.484V144.79C309.918 127.112 295.537 112.731 277.859 112.731H273.449C255.771 112.731 241.39 127.112 241.39 144.79V165.484C241.39 172.367 243.578 178.743 247.285 183.973H225.999C229.704 178.743 231.891 172.366 231.891 165.484V144.79C231.891 127.112 217.509 112.731 199.832 112.731H195.421C177.744 112.731 163.363 127.112 163.363 144.79V165.484C163.363 172.388 165.563 178.783 169.29 184.021C145.463 185.019 126.384 204.622 126.384 228.584V294.737C126.384 308.486 137.613 319.672 151.416 319.672C151.555 319.672 151.691 319.66 151.828 319.651V415.114C151.828 427.585 161.974 437.73 174.444 437.73H181.794C187.952 437.73 193.543 435.257 197.625 431.251C201.708 435.257 207.299 437.73 213.456 437.73H220.806C226.965 437.73 232.548 435.246 236.631 431.238C240.714 435.25 246.307 437.73 252.47 437.73H259.82C265.977 437.73 271.569 435.257 275.651 431.251C279.734 435.257 285.325 437.73 291.482 437.73H298.833C304.996 437.73 310.589 435.25 314.672 431.238C318.753 435.246 324.336 437.73 330.496 437.73H337.846C344.004 437.73 349.595 435.257 353.677 431.251C357.76 435.257 363.351 437.73 369.508 437.73H376.859C389.33 437.73 399.475 427.585 399.475 415.114V319.651C399.612 319.659 399.749 319.672 399.888 319.672C413.689 319.672 424.919 308.486 424.919 294.737V228.585C424.923 204.622 405.845 185.019 382.018 184.021ZM332.987 144.79C332.987 134.595 341.282 126.301 351.476 126.301H355.886C366.081 126.301 374.375 134.595 374.375 144.79V165.484C374.375 175.679 366.081 183.973 355.886 183.973H351.476C341.282 183.973 332.987 175.679 332.987 165.484V144.79ZM254.96 144.79C254.96 134.595 263.254 126.301 273.449 126.301H277.859C288.053 126.301 296.348 134.595 296.348 144.79V165.484C296.348 175.679 288.053 183.973 277.859 183.973H273.449C263.254 183.973 254.96 175.679 254.96 165.484V144.79ZM291.346 197.543L275.654 223.293L259.962 197.543H291.346ZM176.933 144.79C176.933 134.595 185.226 126.301 195.421 126.301H199.832C210.027 126.301 218.321 134.595 218.321 144.79V165.484C218.321 175.679 210.027 183.973 199.832 183.973H195.421C185.226 183.973 176.933 175.679 176.933 165.484V144.79V144.79ZM158.613 244.699C154.866 244.699 151.828 247.736 151.828 251.484V251.486V306.123C151.691 306.115 151.555 306.102 151.416 306.102C145.096 306.102 139.954 301.004 139.954 294.737V228.583C139.954 211.467 153.969 197.542 171.196 197.542H217.079C209.245 205.577 204.412 216.527 204.412 228.583V294.737C204.412 296.934 204.702 299.063 205.239 301.094L197.641 304.942L165.398 288.544V251.486V251.484C165.398 247.736 162.36 244.699 158.613 244.699ZM220.809 424.161H213.459C208.47 424.161 204.412 420.103 204.412 415.114V340.536C204.412 336.788 201.375 333.751 197.627 333.751C193.88 333.751 190.842 336.788 190.842 340.536V415.114C190.842 420.102 186.784 424.161 181.796 424.161H174.444C169.456 424.161 165.398 420.103 165.398 415.114V303.768L194.557 318.599C195.524 319.09 196.579 319.336 197.633 319.336C198.683 319.336 199.734 319.092 200.698 318.604L212.194 312.782C216.688 317.046 222.761 319.673 229.442 319.673C229.581 319.673 229.717 319.661 229.854 319.652V415.114C229.856 420.103 225.797 424.161 220.809 424.161ZM307.882 415.115C307.882 420.103 303.824 424.162 298.835 424.162H291.485C286.496 424.162 282.438 420.104 282.438 415.115V340.536C282.438 336.789 279.4 333.751 275.653 333.751C271.906 333.751 268.868 336.789 268.868 340.536V415.115C268.868 420.103 264.81 424.162 259.822 424.162H252.472C247.483 424.162 243.425 420.104 243.425 415.115V303.841L272.582 318.604C273.546 319.092 274.597 319.336 275.648 319.336C276.702 319.336 277.757 319.09 278.723 318.599L307.882 303.767V415.115H307.882ZM307.882 251.484V251.486V288.543L275.64 304.942L243.425 288.63V251.486V251.484C243.425 247.737 240.388 244.699 236.64 244.699C232.892 244.699 229.855 247.736 229.855 251.484V251.486V306.123C229.718 306.115 229.581 306.102 229.442 306.102C223.123 306.102 217.981 301.004 217.981 294.737V228.583C217.981 213.129 229.407 200.28 244.306 197.929L269.86 239.861C271.091 241.882 273.287 243.114 275.653 243.114C278.02 243.114 280.215 241.882 281.447 239.861L307 197.929C321.899 200.28 333.325 213.129 333.325 228.583V294.737C333.325 301.004 328.185 306.102 321.864 306.102C321.725 306.102 321.589 306.114 321.452 306.123V251.486V251.484C321.452 247.737 318.414 244.699 314.667 244.699C310.92 244.699 307.882 247.736 307.882 251.484ZM385.909 415.115C385.909 420.103 381.851 424.162 376.863 424.162H369.512C364.524 424.162 360.466 420.104 360.466 415.115V340.536C360.466 336.789 357.428 333.751 353.681 333.751C349.934 333.751 346.896 336.789 346.896 340.536V415.115C346.896 420.103 342.837 424.162 337.849 424.162H330.498C325.51 424.162 321.452 420.104 321.452 415.115V319.651C321.589 319.659 321.725 319.672 321.864 319.672C328.545 319.672 334.618 317.046 339.111 312.782L350.608 318.603C351.572 319.091 352.622 319.335 353.673 319.335C354.728 319.335 355.782 319.089 356.748 318.598L385.908 303.767V415.115H385.909ZM411.353 294.738C411.353 301.004 406.212 306.103 399.892 306.103C399.753 306.103 399.617 306.115 399.479 306.124V251.486V251.484C399.479 247.737 396.442 244.699 392.694 244.699C388.947 244.699 385.909 247.736 385.909 251.484V251.486V288.543L353.667 304.942L346.068 301.094C346.606 299.064 346.895 296.934 346.895 294.737V228.584C346.895 216.528 342.061 205.578 334.227 197.543H380.111C397.338 197.543 411.352 211.467 411.352 228.584V294.738H411.353Z" stroke="black" stroke-width="20" mask="url(#path-17-inside-1_7_77)"/>
</g>
<defs>
<clipPath id="clip0_7_77">
<rect width="325" height="325" fill="white" transform="translate(113.153 112.731)"/>
</clipPath>
</defs>
</svg>
