<svg width="286" height="111" viewBox="0 0 286 111" fill="none" xmlns="http://www.w3.org/2000/svg">
<path d="M147.043 106.989L77.5604 54.8319L9.02754 106.275L7.45881 104.177L77.5604 51.5566L146.712 103.464L215.43 28.1011L215.706 27.9895L285.023 0L286 2.43185L216.959 30.309L147.043 106.989Z" fill="white"/>
<path d="M7.84722 110.635C12.1811 110.635 15.6944 107.114 15.6944 102.771C15.6944 98.4279 12.1811 94.9069 7.84722 94.9069C3.51332 94.9069 0 98.4279 0 102.771C0 107.114 3.51332 110.635 7.84722 110.635Z" fill="#043347"/>
<path d="M77.1644 59.5221C81.4983 59.5221 85.0116 56.0012 85.0116 51.6579C85.0116 47.3146 81.4983 43.7937 77.1644 43.7937C72.8305 43.7937 69.3171 47.3146 69.3171 51.6579C69.3171 56.0012 72.8305 59.5221 77.1644 59.5221Z" fill="#043347"/>
<path d="M146.481 110.635C150.815 110.635 154.329 107.114 154.329 102.771C154.329 98.4279 150.815 94.9069 146.481 94.9069C142.148 94.9069 138.634 98.4279 138.634 102.771C138.634 107.114 142.148 110.635 146.481 110.635Z" fill="#043347"/>
<path d="M215.799 34.6188C220.133 34.6188 223.646 31.0978 223.646 26.7545C223.646 22.4112 220.133 18.8903 215.799 18.8903C211.465 18.8903 207.951 22.4112 207.951 26.7545C207.951 31.0978 211.465 34.6188 215.799 34.6188Z" fill="#043347"/>
</svg>
