<svg width="551" height="551" viewBox="0 0 551 551" fill="none" xmlns="http://www.w3.org/2000/svg">
<circle cx="275.146" cy="275.984" r="267.5" fill="#1C435C" stroke="white" stroke-width="15"/>
<path d="M162.962 296.815L164.962 300.28C165.284 300.094 165.578 299.864 165.836 299.597L162.962 296.815ZM218.573 250.343L220.476 253.862C220.734 253.722 220.977 253.554 221.198 253.361L218.573 250.343ZM222.639 229.259L218.942 230.785L218.942 230.785L222.639 229.259ZM265.041 228.211L265.14 232.209C265.19 232.208 265.24 232.206 265.29 232.203L265.041 228.211ZM270.422 198.538L271.437 194.669C271.134 194.589 270.822 194.546 270.508 194.539L270.422 198.538ZM177.245 198.882L176.424 194.967L176.424 194.967L177.245 198.882ZM152.074 217.162L155.296 219.532L152.074 217.162ZM125.956 248.729L128.328 251.95C128.551 251.786 128.757 251.598 128.941 251.392L125.956 248.729ZM378.938 285.971L377.903 282.107C377.544 282.203 377.2 282.349 376.881 282.54L378.938 285.971ZM313.193 316.466L312.266 312.575C311.98 312.643 311.703 312.743 311.439 312.872L313.193 316.466ZM303.809 335.78L307.776 335.262L307.776 335.262L303.809 335.78ZM262.58 325.818L263.52 321.93C263.471 321.918 263.422 321.907 263.373 321.897L262.58 325.818ZM249.703 353.087L247.721 356.561C247.994 356.717 248.284 356.839 248.585 356.927L249.703 353.087ZM339.794 376.871L339.574 380.865L339.574 380.865L339.794 376.871ZM368.839 365.729L371.337 368.852L368.839 365.729ZM402.237 341.996L400.779 338.271C400.521 338.372 400.274 338.5 400.043 338.652L402.237 341.996ZM467.794 340.714L468.829 344.578L467.794 340.714ZM471.985 333.454L475.849 332.419L471.985 333.454ZM423.514 346.442L427.378 345.407L423.514 346.442ZM430.774 350.633L429.739 346.77L430.774 350.633ZM404.799 253.692L403.763 249.828L403.763 249.828L404.799 253.692ZM400.607 260.952L396.743 261.987L400.607 260.952ZM441.818 243.773L442.854 247.636L442.854 247.636L441.818 243.773ZM449.078 247.964L445.214 248.999L449.078 247.964ZM140.042 314.667L164.962 300.28L160.962 293.351L136.042 307.739L140.042 314.667ZM165.836 299.597C168.51 296.833 172.739 292.358 176.759 287.889C180.714 283.493 184.678 278.872 186.659 275.91L180.01 271.462C178.397 273.873 174.822 278.081 170.812 282.539C166.868 286.923 162.707 291.326 160.087 294.034L165.836 299.597ZM186.659 275.91C187.134 275.201 188.619 273.778 191.318 271.75C193.868 269.834 197.098 267.668 200.594 265.46C207.578 261.05 215.407 256.603 220.476 253.862L216.67 246.825C211.49 249.626 203.497 254.165 196.322 258.697C192.738 260.96 189.306 263.255 186.512 265.354C183.869 267.34 181.332 269.485 180.01 271.462L186.659 275.91ZM221.198 253.361C225.228 249.856 231.437 240.088 226.336 227.732L218.942 230.785C222.369 239.088 218.182 245.382 215.948 247.325L221.198 253.361ZM226.336 227.732C225.109 224.759 222.696 223.064 219.961 222.37C217.417 221.724 214.572 221.917 211.836 222.441C206.328 223.498 199.755 226.213 193.488 229.287C180.857 235.48 168.223 243.761 165.39 245.582L169.715 252.312C172.621 250.444 184.865 242.425 197.01 236.469C203.13 233.468 208.92 231.146 213.343 230.298C215.573 229.87 217.086 229.894 217.993 230.124C218.708 230.305 218.836 230.531 218.942 230.785L226.336 227.732ZM222.738 233.258L265.14 232.209L264.943 224.212L222.54 225.26L222.738 233.258ZM265.29 232.203C280.268 231.269 290.189 224.849 291 215.251C291.791 205.905 283.465 197.825 271.437 194.669L269.407 202.407C279.892 205.158 283.33 211.014 283.029 214.577C282.749 217.888 278.723 223.35 264.793 224.218L265.29 232.203ZM270.508 194.539C255.42 194.214 233.454 194.015 214.578 194.039C205.141 194.051 196.457 194.119 189.782 194.256C186.447 194.325 183.591 194.411 181.383 194.517C179.311 194.617 177.476 194.746 176.424 194.967L178.066 202.796C178.065 202.797 178.072 202.795 178.088 202.792C178.104 202.79 178.126 202.786 178.155 202.781C178.214 202.772 178.293 202.761 178.394 202.749C178.598 202.723 178.862 202.696 179.193 202.669C179.855 202.613 180.715 202.559 181.768 202.508C183.87 202.407 186.643 202.323 189.947 202.255C196.548 202.119 205.174 202.051 214.589 202.039C233.416 202.015 255.32 202.214 270.336 202.537L270.508 194.539ZM176.424 194.967C168.634 196.601 159.006 200.992 148.852 214.791L155.296 219.532C164.321 207.268 172.263 204.014 178.066 202.796L176.424 194.967ZM148.852 214.791C141.299 225.055 128.468 239.902 122.97 246.067L128.941 251.392C134.463 245.199 147.506 230.118 155.296 219.532L148.852 214.791ZM123.583 245.509C121.169 247.287 117.646 249.708 114.286 251.998C110.982 254.25 107.789 256.407 106.182 257.566L110.863 264.054C112.354 262.978 115.395 260.924 118.791 258.609C122.131 256.333 125.776 253.83 128.328 251.95L123.583 245.509ZM115.146 357.315L148.337 338.152L144.337 331.223L111.146 350.386L115.146 357.315ZM151.97 324.591L107.717 247.942L100.789 251.942L145.042 328.591L151.97 324.591ZM94.156 244.308L60.965 263.471L64.965 270.399L98.156 251.236L94.156 244.308ZM57.3313 277.032L101.584 353.681L108.513 349.681L64.2595 273.032L57.3313 277.032ZM60.965 263.471C56.2168 266.212 54.5899 272.284 57.3313 277.032L64.2595 273.032C63.7273 272.11 64.0431 270.932 64.965 270.399L60.965 263.471ZM107.717 247.942C104.976 243.194 98.9043 241.567 94.156 244.308L98.156 251.236C99.0779 250.704 100.257 251.02 100.789 251.942L107.717 247.942ZM148.337 338.152C153.085 335.41 154.712 329.339 151.97 324.591L145.042 328.591C145.574 329.512 145.258 330.691 144.337 331.223L148.337 338.152ZM111.146 350.386C110.224 350.919 109.045 350.603 108.513 349.681L101.584 353.681C104.326 358.429 110.397 360.056 115.146 357.315L111.146 350.386ZM405.697 274.66L377.903 282.107L379.973 289.835L407.768 282.387L405.697 274.66ZM376.881 282.54C373.583 284.517 368.34 287.746 363.3 291.022C358.342 294.245 353.318 297.682 350.637 300.03L355.909 306.048C358.09 304.137 362.633 300.997 367.66 297.729C372.604 294.515 377.763 291.339 380.995 289.402L376.881 282.54ZM350.637 300.03C349.995 300.593 348.193 301.583 345.06 302.843C342.102 304.034 338.42 305.29 334.472 306.518C326.585 308.971 317.872 311.239 312.266 312.575L314.121 320.357C319.849 318.992 328.745 316.677 336.848 314.157C340.896 312.898 344.805 311.569 348.047 310.265C351.114 309.031 354.12 307.615 355.909 306.048L350.637 300.03ZM311.439 312.872C306.639 315.215 298.113 323.043 299.843 336.297L307.776 335.262C306.613 326.356 312.287 321.36 314.948 320.061L311.439 312.872ZM299.843 336.297C300.259 339.487 302.151 341.749 304.613 343.127C306.903 344.41 309.701 344.96 312.479 345.161C318.073 345.566 325.125 344.645 331.974 343.298C345.778 340.584 360.124 335.856 363.332 334.83L360.897 327.21C357.606 328.262 343.703 332.839 330.431 335.448C323.742 336.763 317.549 337.508 313.057 337.182C310.792 337.018 309.337 336.604 308.521 336.147C307.877 335.787 307.811 335.536 307.776 335.262L299.843 336.297ZM304.749 331.892L263.52 321.93L261.641 329.706L302.87 339.668L304.749 331.892ZM263.373 321.897C248.664 318.922 237.42 322.556 234.152 331.617C230.969 340.44 236.92 350.399 247.721 356.561L251.685 349.612C242.27 344.241 240.464 337.695 241.677 334.332C242.804 331.206 248.107 326.972 261.787 329.738L263.373 321.897ZM248.585 356.927C263.075 361.146 284.241 367.024 302.479 371.886C311.598 374.317 320.004 376.498 326.487 378.094C329.726 378.891 332.507 379.547 334.668 380.015C336.695 380.455 338.501 380.806 339.574 380.865L340.014 372.877C340.015 372.877 340.008 372.877 339.992 372.875C339.976 372.874 339.954 372.872 339.925 372.869C339.865 372.862 339.786 372.853 339.685 372.838C339.482 372.81 339.219 372.767 338.893 372.709C338.239 372.591 337.394 372.421 336.364 372.197C334.308 371.751 331.607 371.115 328.398 370.325C321.987 368.748 313.637 366.581 304.54 364.156C286.348 359.306 265.242 353.445 250.821 349.246L248.585 356.927ZM339.574 380.865C347.521 381.302 357.958 379.553 371.337 368.852L366.34 362.605C354.449 372.115 345.935 373.203 340.014 372.877L339.574 380.865ZM371.337 368.852C381.29 360.893 397.526 349.873 404.432 345.34L400.043 338.652C393.106 343.204 376.604 354.396 366.34 362.605L371.337 368.852ZM403.695 345.721C406.487 344.628 410.517 343.202 414.356 341.859C418.13 340.539 421.772 339.282 423.624 338.579L420.782 331.101C419.063 331.754 415.594 332.951 411.715 334.308C407.9 335.642 403.731 337.116 400.779 338.271L403.695 345.721ZM440.783 239.909L403.763 249.828L405.834 257.556L442.854 247.636L440.783 239.909ZM396.743 261.987L419.651 347.477L427.378 345.407L404.471 259.916L396.743 261.987ZM431.809 354.497L468.829 344.578L466.758 336.85L429.739 346.77L431.809 354.497ZM475.849 332.419L452.942 246.929L445.214 248.999L468.121 334.49L475.849 332.419ZM468.829 344.578C474.125 343.159 477.268 337.715 475.849 332.419L468.121 334.49C468.397 335.518 467.787 336.575 466.758 336.85L468.829 344.578ZM419.651 347.477C421.07 352.773 426.513 355.916 431.809 354.497L429.739 346.77C428.71 347.045 427.653 346.435 427.378 345.407L419.651 347.477ZM403.763 249.828C398.467 251.247 395.324 256.691 396.743 261.987L404.471 259.916C404.195 258.888 404.806 257.831 405.834 257.556L403.763 249.828ZM442.854 247.636C443.882 247.361 444.939 247.971 445.214 248.999L452.942 246.929C451.523 241.633 446.079 238.49 440.783 239.909L442.854 247.636Z" fill="white"/>
<path d="M275.146 286.391L265.715 295.822C265.324 296.213 265.324 296.846 265.715 297.237L273.439 304.961C274.069 305.591 275.146 305.145 275.146 304.254V265.991C275.146 265.726 275.041 265.471 274.854 265.284L265.715 256.145C265.324 255.755 265.324 255.121 265.715 254.731L274.439 246.007C274.83 245.616 275.463 245.616 275.854 246.007L285.285 255.438M265.57 277.729H284.123" stroke="white" stroke-width="4"/>
<path d="M272.827 301.793L268.306 297.272C267.926 296.892 267.914 296.281 268.277 295.887L272.798 290.981C273.415 290.312 274.534 290.748 274.534 291.659V301.086C274.534 301.976 273.456 302.423 272.827 301.793Z" fill="#1C435C" stroke="#1C435C"/>
</svg>
