<svg width="550" height="550" viewBox="0 0 550 550" fill="none" xmlns="http://www.w3.org/2000/svg">
<circle cx="275" cy="275" r="267.5" fill="#1C435C" stroke="white" stroke-width="15"/>
<path d="M384.801 202.785C351.528 202.785 324.555 222.591 324.555 255.864V270.942C324.555 274.049 323.078 276.971 320.576 278.814V278.814C318.074 280.657 316.597 283.579 316.597 286.686V299.715C316.597 303.317 318.029 306.772 320.576 309.32V309.32C323.123 311.867 324.555 315.322 324.555 318.925V344.858C324.555 348.578 325.837 352.191 328.304 354.974C332.715 359.952 338.345 365.878 342.945 370.338C347.409 374.665 350.693 380.888 350.693 387.104V399.414C350.693 402.504 349.819 405.536 348.042 408.063C341.832 416.897 331.578 429.374 325.466 429.374H275M384.801 202.783C418.075 202.783 445.048 222.588 445.048 255.862V270.939C445.048 274.046 446.525 276.968 449.026 278.811V278.811C451.528 280.654 453.005 283.576 453.005 286.683V299.712C453.005 303.315 451.574 306.77 449.026 309.317V309.317C446.479 311.865 445.048 315.32 445.048 318.922V344.855C445.048 348.575 443.766 352.188 441.298 354.972C436.887 359.949 431.258 365.876 426.657 370.335C422.193 374.662 418.91 380.885 418.91 387.101V399.411C418.91 402.501 419.783 405.533 421.56 408.06C427.771 416.894 438.025 429.371 444.136 429.371H494.602" stroke="white" stroke-width="15"/>
<path d="M132.146 259.188H126.146V265.188V266.432V272.432H132.146H133.391H139.391V266.432V265.188V259.188H133.391H132.146ZM172.605 259.188H166.605V265.188V266.432V272.432H172.605H173.85H179.85V266.432V265.188V259.188H173.85H172.605ZM213.064 259.188H207.064V265.188V266.432V272.432H213.064H214.309H220.309V266.432V265.188V259.188H214.309H213.064ZM128.658 173.19H214.685H220.685H243.093H249.093H275.263C277.45 173.19 279.222 174.962 279.222 177.149V221.304V331.514C279.222 333.701 277.45 335.474 275.263 335.474H71.1022C68.9157 335.474 67.1432 333.701 67.1432 331.514V221.304V177.149C67.1432 174.962 68.9157 173.19 71.1022 173.19H94.2496H100.25H122.658H128.658ZM116.658 161.19H106.25V150.782H116.658V161.19ZM253.523 259.188H247.523V265.188V266.432V272.432H253.523H254.767H260.767V266.432V265.188V259.188H254.767H253.523ZM91.6875 293.495H85.6875V299.495V300.739V306.739H91.6875H92.9324H98.9324V300.739V299.495V293.495H92.9324H91.6875ZM132.146 293.495H126.146V299.495V300.739V306.739H132.146H133.391H139.391V300.739V299.495V293.495H133.391H132.146ZM172.605 293.495H166.605V299.495V300.739V306.739H172.605H173.85H179.85V300.739V299.495V293.495H173.85H172.605ZM213.064 293.495H207.064V299.495V300.739V306.739H213.064H214.309H220.309V300.739V299.495V293.495H214.309H213.064ZM253.523 293.495H247.523V299.495V300.739V306.739H253.523H254.767H260.767V300.739V299.495V293.495H254.767H253.523ZM226.685 161.19V150.782H237.093V161.19H226.685Z" stroke="white" stroke-width="12"/>
</svg>
