<svg width="550" height="550" viewBox="0 0 550 550" fill="none" xmlns="http://www.w3.org/2000/svg">
<circle cx="275" cy="275" r="267.5" fill="#1C435C" stroke="white" stroke-width="15"/>
<path d="M384.801 202.785C351.528 202.785 324.555 222.591 324.555 255.864V270.942C324.555 274.049 323.078 276.971 320.576 278.814V278.814C318.074 280.657 316.597 283.579 316.597 286.686V299.715C316.597 303.317 318.029 306.772 320.576 309.32V309.32C323.123 311.867 324.555 315.322 324.555 318.925V344.858C324.555 348.578 325.837 352.191 328.304 354.974C332.715 359.952 338.345 365.878 342.945 370.338C347.409 374.665 350.693 380.888 350.693 387.104V399.414C350.693 402.504 349.819 405.536 348.042 408.063C341.832 416.897 331.578 429.374 325.466 429.374H275M384.801 202.783C418.075 202.783 445.048 222.588 445.048 255.862V270.939C445.048 274.046 446.525 276.968 449.026 278.811V278.811C451.528 280.654 453.005 283.576 453.005 286.683V299.712C453.005 303.315 451.574 306.77 449.026 309.317V309.317C446.479 311.865 445.048 315.32 445.048 318.922V344.855C445.048 348.575 443.766 352.188 441.298 354.972C436.887 359.949 431.258 365.876 426.657 370.335C422.193 374.662 418.91 380.885 418.91 387.101V399.411C418.91 402.501 419.783 405.533 421.56 408.06C427.771 416.894 438.025 429.371 444.136 429.371H494.602" stroke="white" stroke-width="15"/>
<path d="M80.8172 231.873V327.38C80.8172 332.146 84.6811 336.01 89.4475 336.01H266.37C271.136 336.01 275 332.146 275 327.38V231.873M80.8172 231.873V193.609C80.8172 188.843 84.6811 184.979 89.4475 184.979H266.37C271.136 184.979 275 188.843 275 193.609V231.873M80.8172 231.873H275M142.347 269.902H143.426V270.981H142.347V269.902ZM177.408 269.902H178.487V270.981H177.408V269.902ZM212.469 269.902H213.547V270.981H212.469V269.902ZM134.124 184.979V169.876C134.124 167.493 132.192 165.561 129.809 165.561H119.021C116.638 165.561 114.706 167.493 114.706 169.876V184.979H134.124ZM247.529 269.902H248.608V270.981H247.529V269.902ZM238.491 184.979V169.876C238.491 167.493 236.559 165.561 234.176 165.561H223.388C221.005 165.561 219.073 167.493 219.073 169.876V184.979H238.491ZM107.286 299.632H108.365V300.71H107.286V299.632ZM142.347 299.632H143.426V300.71H142.347V299.632ZM177.408 299.632H178.487V300.71H177.408V299.632ZM212.469 299.632H213.547V300.71H212.469V299.632ZM247.529 299.632H248.608V300.71H247.529V299.632Z" stroke="white" stroke-width="12"/>
</svg>
