<svg width="551" height="550" viewBox="0 0 551 550" fill="none" xmlns="http://www.w3.org/2000/svg">
<circle cx="275.754" cy="275" r="267.5" fill="#1C435C" stroke="white" stroke-width="15"/>
<path d="M380.547 203.481C347.088 203.481 319.965 223.397 319.965 256.856V272.018C319.965 275.142 318.48 278.08 315.964 279.933V279.933C313.448 281.787 311.963 284.725 311.963 287.849V300.951C311.963 304.573 313.402 308.048 315.964 310.609V310.609C318.526 313.171 319.965 316.645 319.965 320.268V346.377C319.965 350.097 321.247 353.71 323.714 356.494C328.166 361.519 333.858 367.511 338.499 372.007C342.964 376.332 346.248 382.554 346.248 388.77V401.232C346.248 404.321 345.375 407.353 343.598 409.881C337.355 418.765 327.032 431.332 320.882 431.332H270.134M380.547 203.479C414.006 203.479 441.129 223.395 441.129 256.853V272.015C441.129 275.139 442.614 278.078 445.13 279.931V279.931C447.646 281.784 449.131 284.722 449.131 287.847V300.948C449.131 304.571 447.692 308.045 445.13 310.607V310.607C442.568 313.168 441.129 316.643 441.129 320.265V346.375C441.129 350.094 439.847 353.707 437.38 356.491C432.928 361.516 427.236 367.508 422.595 372.004C418.13 376.33 414.846 382.551 414.846 388.767V401.229C414.846 404.319 415.719 407.35 417.496 409.878C423.739 418.762 434.062 431.33 440.213 431.33H490.96" stroke="white" stroke-width="15"/>
<path d="M100.605 237.845L100.216 241.826C100.586 241.863 100.959 241.847 101.325 241.78L100.605 237.845ZM153.936 233.834L153.436 237.803C153.728 237.84 154.022 237.844 154.315 237.816L153.936 233.834ZM165.429 222.926L161.534 222.016L165.429 222.926ZM191.328 240.504L189.081 243.814C189.123 243.842 189.165 243.87 189.207 243.896L191.328 240.504ZM207.298 225.007L210.375 222.451C210.174 222.209 209.946 221.993 209.695 221.805L207.298 225.007ZM151.23 185.203L152.84 181.542L152.84 181.542L151.23 185.203ZM128.274 185.366L129.515 189.168L128.274 185.366ZM99.044 193.096L99.0994 197.096C99.3766 197.092 99.6526 197.059 99.923 196.998L99.044 193.096ZM234.881 324.076L236.287 320.332C235.939 320.201 235.575 320.119 235.205 320.089L234.881 324.076ZM182.33 314.148L183.84 310.444C183.568 310.333 183.284 310.252 182.994 310.203L182.33 314.148ZM168.405 321.709L171.932 323.596L171.932 323.596L168.405 321.709ZM147.938 298.027L150.965 295.412C150.932 295.374 150.899 295.336 150.865 295.3L147.938 298.027ZM128.501 308.863L124.868 310.536C124.999 310.821 125.163 311.089 125.357 311.336L128.501 308.863ZM172.357 361.822L169.854 364.942L169.854 364.942L172.357 361.822ZM194.572 367.607L194.358 363.612L194.572 367.607ZM224.807 367.705L225.789 363.827C225.52 363.759 225.245 363.719 224.968 363.708L224.807 367.705ZM264.702 395.085L266.108 391.34L264.702 395.085ZM270.335 392.528L266.59 391.121L270.335 392.528ZM235.668 379.509L239.412 380.915L235.668 379.509ZM238.225 385.142L236.819 388.887L238.225 385.142ZM264.262 315.808L265.668 312.064L264.262 315.808ZM258.629 318.366L254.885 316.959L258.629 318.366ZM290.739 325.751L289.333 329.496L290.739 325.751ZM293.296 331.384L297.041 332.79L293.296 331.384ZM79.0824 239.761L100.216 241.826L100.995 233.864L79.8607 231.799L79.0824 239.761ZM101.325 241.78C104.126 241.268 108.598 240.396 112.945 239.436C117.195 238.498 121.631 237.413 124.174 236.455L121.354 228.969C119.433 229.693 115.552 230.669 111.221 231.624C106.986 232.559 102.611 233.412 99.8859 233.911L101.325 241.78ZM124.174 236.455C124.576 236.304 125.911 236.084 128.411 236.026C130.724 235.972 133.562 236.058 136.594 236.233C142.649 236.583 149.233 237.273 153.436 237.803L154.436 229.866C150.107 229.32 143.337 228.609 137.055 228.246C133.919 228.065 130.842 227.967 128.224 228.028C125.795 228.085 123.183 228.28 121.354 228.969L124.174 236.455ZM154.315 237.816C158.549 237.413 166.95 234.001 169.325 223.836L161.534 222.016C160.157 227.911 155.422 229.675 153.557 229.852L154.315 237.816ZM169.325 223.836C169.952 221.149 169.101 218.765 167.581 216.966C166.189 215.317 164.241 214.132 162.312 213.244C158.421 211.452 153.197 210.242 148.095 209.391C137.785 207.673 126.586 207.216 124.114 207.093L123.716 215.083C126.273 215.211 137.004 215.654 146.78 217.283C151.72 218.106 156.079 219.181 158.966 220.51C160.427 221.183 161.166 221.768 161.469 222.126C161.594 222.275 161.577 222.305 161.552 222.216C161.54 222.173 161.532 222.123 161.531 222.075C161.531 222.028 161.537 222.006 161.534 222.016L169.325 223.836ZM163.183 226.236L189.081 243.814L193.574 237.195L167.676 219.617L163.183 226.236ZM189.207 243.896C198.713 249.84 208.125 250.594 213.27 244.553C218.25 238.704 216.372 229.671 210.375 222.451L204.221 227.563C209.199 233.555 208.397 237.936 207.179 239.366C206.125 240.603 202.065 242.5 193.448 237.113L189.207 243.896ZM209.695 221.805C200.772 215.125 187.668 205.568 176.324 197.474C170.653 193.428 165.406 189.735 161.333 186.946C159.298 185.553 157.538 184.372 156.155 183.48C154.887 182.662 153.657 181.901 152.84 181.542L149.62 188.865C149.613 188.862 149.788 188.946 150.237 189.213C150.643 189.455 151.171 189.785 151.819 190.202C153.112 191.037 154.804 192.171 156.812 193.546C160.824 196.294 166.024 199.953 171.677 203.986C182.982 212.053 196.036 221.573 204.901 228.209L209.695 221.805ZM152.84 181.542C147.22 179.07 139.29 177.564 127.033 181.563L129.515 189.168C139.96 185.761 145.858 187.21 149.62 188.865L152.84 181.542ZM127.033 181.563C118.142 184.463 104.107 187.855 98.165 189.194L99.923 196.998C105.9 195.652 120.245 192.193 129.515 189.168L127.033 181.563ZM98.9885 189.096C96.7985 189.127 93.6645 189.067 90.6605 188.999C87.7252 188.932 84.8588 188.855 83.3786 188.86L83.4099 196.86C84.7485 196.855 87.4312 196.927 90.4782 196.997C93.4566 197.065 96.738 197.128 99.0994 197.096L98.9885 189.096ZM45.8283 254.665L73.9765 257.417L74.7548 249.455L46.6066 246.703L45.8283 254.665ZM83.1256 249.897L89.4795 184.894L81.5174 184.116L75.1635 249.119L83.1256 249.897ZM81.9597 175.745L53.8115 172.993L53.0333 180.955L81.1814 183.707L81.9597 175.745ZM44.6624 180.513L38.3086 245.516L46.2706 246.295L52.6245 181.291L44.6624 180.513ZM53.8115 172.993C49.2086 172.543 45.1124 175.91 44.6624 180.513L52.6245 181.291C52.6446 181.086 52.8276 180.935 53.0333 180.955L53.8115 172.993ZM89.4795 184.894C89.9294 180.291 86.5627 176.195 81.9597 175.745L81.1814 183.707C81.3871 183.727 81.5375 183.91 81.5174 184.116L89.4795 184.894ZM73.9765 257.417C78.5795 257.867 82.6756 254.5 83.1256 249.897L75.1635 249.119C75.1434 249.324 74.9604 249.475 74.7548 249.455L73.9765 257.417ZM46.6066 246.703C46.4009 246.683 46.2505 246.5 46.2706 246.295L38.3086 245.516C37.8586 250.119 41.2253 254.215 45.8283 254.665L46.6066 246.703ZM149.114 269.32C150.017 260.091 158.229 253.341 167.458 254.243L168.236 246.281C154.61 244.949 142.484 254.915 141.152 268.542L149.114 269.32ZM167.458 254.243C176.687 255.145 183.437 263.358 182.535 272.587L190.497 273.365C191.829 259.739 181.863 247.613 168.236 246.281L167.458 254.243ZM182.535 272.587C181.633 281.816 173.42 288.566 164.191 287.664L163.413 295.626C177.039 296.958 189.165 286.991 190.497 273.365L182.535 272.587ZM164.191 287.664C154.962 286.762 148.212 278.549 149.114 269.32L141.152 268.542C139.82 282.168 149.787 294.294 163.413 295.626L164.191 287.664ZM256.166 327.797L236.287 320.332L233.475 327.821L253.354 335.286L256.166 327.797ZM235.205 320.089C232.366 319.859 227.821 319.544 223.374 319.346C219.025 319.152 214.46 319.052 211.756 319.319L212.542 327.28C214.585 327.078 218.586 327.14 223.017 327.338C227.349 327.531 231.796 327.839 234.558 328.063L235.205 320.089ZM211.756 319.319C211.328 319.361 209.982 319.228 207.552 318.637C205.304 318.09 202.585 317.273 199.702 316.319C193.943 314.414 187.762 312.043 183.84 310.444L180.82 317.852C184.859 319.499 191.215 321.938 197.189 323.914C200.172 324.901 203.118 325.792 205.662 326.41C208.024 326.985 210.597 327.472 212.542 327.28L211.756 319.319ZM182.994 310.203C178.8 309.497 169.802 310.618 164.878 319.822L171.932 323.596C174.787 318.258 179.818 317.781 181.665 318.092L182.994 310.203ZM164.878 319.822C163.576 322.255 163.782 324.779 164.783 326.91C165.701 328.863 167.277 330.512 168.91 331.869C172.204 334.607 176.937 337.128 181.646 339.269C191.16 343.597 201.859 346.938 204.214 347.696L206.667 340.082C204.23 339.296 193.979 336.091 184.958 331.988C180.399 329.914 176.467 327.747 174.023 325.716C172.786 324.688 172.223 323.931 172.023 323.507C171.941 323.331 171.965 323.306 171.966 323.399C171.967 323.444 171.961 323.494 171.95 323.54C171.938 323.586 171.926 323.606 171.932 323.596L164.878 319.822ZM171.431 319.094L150.965 295.412L144.912 300.642L165.378 324.325L171.431 319.094ZM150.865 295.3C143.221 287.098 134.325 283.933 127.792 288.438C121.467 292.798 120.943 302.01 124.868 310.536L132.135 307.191C128.878 300.114 130.786 296.09 132.333 295.024C133.67 294.102 138.084 293.32 145.012 300.754L150.865 295.3ZM125.357 311.336C132.247 320.097 142.431 332.72 151.294 343.474C155.725 348.851 159.837 353.775 163.049 357.524C164.654 359.396 166.049 360.993 167.153 362.212C168.166 363.33 169.158 364.384 169.854 364.942L174.86 358.702C174.865 358.706 174.718 358.58 174.354 358.206C174.024 357.867 173.6 357.412 173.082 356.841C172.049 355.7 170.708 354.167 169.124 352.318C165.96 348.626 161.884 343.746 157.468 338.387C148.636 327.669 138.491 315.095 131.645 306.391L125.357 311.336ZM169.854 364.942C174.643 368.784 181.913 372.291 194.787 371.601L194.358 363.612C183.387 364.2 178.066 361.274 174.86 358.702L169.854 364.942ZM194.787 371.601C204.126 371.1 218.56 371.457 224.647 371.702L224.968 363.708C218.846 363.462 204.095 363.09 194.358 363.612L194.787 371.601ZM223.826 371.582C225.949 372.12 228.961 372.989 231.845 373.832C234.663 374.657 237.412 375.473 238.843 375.851L240.883 368.115C239.589 367.774 237.016 367.01 234.091 366.154C231.232 365.318 228.078 364.407 225.789 363.827L223.826 371.582ZM292.145 322.007L265.668 312.064L262.856 319.553L289.333 329.496L292.145 322.007ZM254.885 316.959L231.923 378.103L239.412 380.915L262.374 319.772L254.885 316.959ZM236.819 388.887L263.296 398.83L266.108 391.34L239.631 381.397L236.819 388.887ZM274.079 393.934L297.041 332.79L289.551 329.978L266.59 391.121L274.079 393.934ZM263.296 398.83C267.625 400.455 272.453 398.264 274.079 393.934L266.59 391.121C266.517 391.315 266.302 391.413 266.108 391.34L263.296 398.83ZM231.923 378.103C230.297 382.433 232.489 387.261 236.819 388.887L239.631 381.397C239.438 381.325 239.34 381.109 239.412 380.915L231.923 378.103ZM265.668 312.064C261.339 310.438 256.511 312.63 254.885 316.959L262.374 319.772C262.447 319.578 262.662 319.48 262.856 319.553L265.668 312.064ZM289.333 329.496C289.526 329.569 289.624 329.784 289.551 329.978L297.041 332.79C298.667 328.461 296.475 323.633 292.145 322.007L289.333 329.496Z" fill="white"/>
</svg>
