<svg width="551" height="550" viewBox="0 0 551 550" fill="none" xmlns="http://www.w3.org/2000/svg">
<circle cx="275.653" cy="275" r="267.5" fill="#1C435C" stroke="white" stroke-width="15"/>
<path d="M229.674 399.691C145.518 399.691 77.296 331.469 77.296 247.313C77.296 163.156 145.518 94.9343 229.674 94.9343C279.412 94.9343 323.583 118.764 351.395 155.629" stroke="white" stroke-width="15"/>
<path d="M237.724 148.876V243.817M237.724 243.817V246.816M237.724 243.817L239.794 241.658M237.724 243.817L168.462 316.078" stroke="white" stroke-width="15"/>
<path d="M385.455 202.785C352.181 202.785 325.208 222.591 325.208 255.864V270.942C325.208 274.049 323.731 276.971 321.229 278.814V278.814C318.728 280.657 317.251 283.579 317.251 286.686V299.715C317.251 303.317 318.682 306.772 321.229 309.32V309.32C323.777 311.867 325.208 315.322 325.208 318.925V344.858C325.208 348.578 326.49 352.191 328.958 354.974C333.369 359.952 338.998 365.878 343.599 370.338C348.062 374.665 351.346 380.888 351.346 387.104V399.414C351.346 402.504 350.472 405.536 348.696 408.063C342.485 416.897 332.231 429.374 326.12 429.374H275.653M385.455 202.783C418.728 202.783 445.701 222.588 445.701 255.862V270.939C445.701 274.046 447.178 276.968 449.68 278.811V278.811C452.182 280.654 453.658 283.576 453.658 286.683V299.712C453.658 303.315 452.227 306.77 449.68 309.317V309.317C447.132 311.865 445.701 315.32 445.701 318.922V344.855C445.701 348.575 444.419 352.188 441.952 354.972C437.54 359.949 431.911 365.876 427.31 370.335C422.847 374.662 419.563 380.885 419.563 387.101V399.411C419.563 402.501 420.437 405.533 422.214 408.06C428.424 416.894 438.678 429.371 444.79 429.371H495.256" stroke="white" stroke-width="15"/>
</svg>
