<svg width="551" height="551" viewBox="0 0 551 551" fill="none" xmlns="http://www.w3.org/2000/svg">
<circle cx="275.222" cy="275.231" r="267.5" fill="#1C435C" stroke="white" stroke-width="15"/>
<path d="M380.015 203.713C346.557 203.713 319.433 223.628 319.433 257.087V272.249C319.433 275.373 317.948 278.312 315.432 280.165V280.165C312.917 282.018 311.432 284.956 311.432 288.081V301.182C311.432 304.805 312.871 308.279 315.432 310.84V310.84C317.994 313.402 319.433 316.876 319.433 320.499V346.609C319.433 350.328 320.715 353.941 323.182 356.725C327.634 361.75 333.326 367.742 337.968 372.238C342.433 376.564 345.717 382.785 345.717 389.001V401.463C345.717 404.552 344.843 407.584 343.067 410.112C336.823 418.996 326.5 431.563 320.35 431.563H269.603M380.015 203.71C413.474 203.71 440.598 223.626 440.598 257.084V272.246C440.598 275.371 442.083 278.309 444.598 280.162V280.162C447.114 282.015 448.599 284.953 448.599 288.078V301.179C448.599 304.802 447.16 308.276 444.598 310.838V310.838C442.037 313.399 440.598 316.874 440.598 320.496V346.606C440.598 350.326 439.316 353.938 436.849 356.722C432.396 361.747 426.704 367.74 422.063 372.236C417.598 376.561 414.314 382.782 414.314 388.998V401.46C414.314 404.55 415.188 407.582 416.964 410.109C423.208 418.994 433.531 431.561 439.681 431.561H490.428" stroke="white" stroke-width="15"/>
<path d="M147.928 218.633L150.499 214.345C150.1 214.106 149.67 213.924 149.222 213.804L147.928 218.633ZM213.714 249.148L215.907 244.655C215.577 244.494 215.23 244.369 214.873 244.284L213.714 249.148ZM223.104 268.474L218.146 267.827L218.146 267.827L223.104 268.474ZM264.359 258.505L263.368 253.605C263.306 253.617 263.245 253.631 263.185 253.645L264.359 258.505ZM277.244 285.792L278.642 290.592C279.018 290.483 279.381 290.329 279.722 290.135L277.244 285.792ZM187.096 309.591L187.371 314.583L187.096 309.591ZM158.033 298.441L161.156 294.537L158.033 298.441ZM124.613 274.694L127.357 270.514C127.067 270.324 126.759 270.164 126.436 270.038L124.613 274.694ZM149.217 220.595L162.674 170.371L153.015 167.782L139.558 218.006L149.217 220.595ZM167.691 167.474L270.304 194.97L272.892 185.31L170.279 157.815L167.691 167.474ZM273.2 199.986L257.422 258.872L267.081 261.46L282.86 202.574L273.2 199.986ZM270.304 194.97C272.489 195.555 273.786 197.801 273.2 199.986L282.86 202.574C284.874 195.055 280.412 187.325 272.892 185.31L270.304 194.97ZM162.674 170.371C163.26 168.186 165.506 166.889 167.691 167.474L170.279 157.815C162.759 155.8 155.03 160.263 153.015 167.782L162.674 170.371ZM224.687 217.987C222.541 225.994 214.31 230.747 206.302 228.601L203.714 238.26C217.057 241.835 230.771 233.917 234.346 220.575L224.687 217.987ZM206.302 228.601C198.294 226.455 193.542 218.224 195.688 210.216L186.029 207.628C182.454 220.971 190.372 234.685 203.714 238.26L206.302 228.601ZM195.688 210.216C197.834 202.209 206.065 197.456 214.072 199.602L216.661 189.943C203.318 186.368 189.604 194.286 186.029 207.628L195.688 210.216ZM214.072 199.602C222.08 201.748 226.832 209.979 224.687 217.987L234.346 220.575C237.921 207.232 230.003 193.518 216.661 189.943L214.072 199.602ZM118.821 216.011L146.633 223.463L149.222 213.804L121.409 206.351L118.821 216.011ZM145.356 222.922C148.582 224.855 153.733 228.027 158.669 231.236C163.708 234.511 168.194 237.616 170.314 239.473L176.904 231.952C174.159 229.547 169.071 226.071 164.119 222.851C159.063 219.565 153.807 216.328 150.499 214.345L145.356 222.922ZM170.314 239.473C172.247 241.167 175.405 242.636 178.466 243.868C181.744 245.187 185.685 246.526 189.747 247.789C197.883 250.32 206.807 252.642 212.555 254.012L214.873 244.284C209.279 242.951 200.583 240.687 192.717 238.24C188.779 237.016 185.124 235.768 182.199 234.591C179.056 233.326 177.403 232.389 176.904 231.952L170.314 239.473ZM211.521 253.641C213.916 254.811 219.238 259.457 218.146 267.827L228.062 269.121C229.863 255.315 220.977 247.129 215.907 244.655L211.521 253.641ZM218.146 267.827C218.137 267.893 218.137 267.842 218.185 267.777C218.217 267.733 218.174 267.818 217.902 267.971C217.269 268.325 215.98 268.722 213.778 268.882C209.421 269.198 203.33 268.475 196.658 267.163C183.443 264.565 169.587 260.004 166.284 258.949L163.239 268.474C166.439 269.497 180.85 274.247 194.729 276.975C201.603 278.327 208.765 279.271 214.501 278.856C217.345 278.65 220.312 278.082 222.787 276.696C225.477 275.19 227.598 272.676 228.062 269.121L218.146 267.827ZM224.278 273.334L265.533 263.366L263.185 253.645L221.929 263.614L224.278 273.334ZM265.35 263.406C278.91 260.664 283.476 264.976 284.337 267.363C285.305 270.048 284.015 276.173 274.767 281.448L279.722 290.135C290.703 283.87 297.173 273.479 293.744 263.97C290.206 254.163 278.214 250.602 263.368 253.605L265.35 263.406ZM275.846 280.991C261.426 285.19 240.314 291.053 222.116 295.904C213.016 298.33 204.668 300.496 198.261 302.072C195.054 302.861 192.362 303.496 190.317 303.939C189.293 304.162 188.46 304.33 187.822 304.444C187.503 304.501 187.254 304.542 187.066 304.568C186.865 304.596 186.797 304.6 186.821 304.598L187.371 314.583C188.539 314.519 190.429 314.148 192.437 313.712C194.612 313.24 197.405 312.581 200.65 311.783C207.146 310.184 215.564 308 224.691 305.567C242.947 300.7 264.134 294.817 278.642 290.592L275.846 280.991ZM186.821 304.598C181.149 304.911 172.87 303.905 161.156 294.537L154.91 302.346C168.484 313.201 179.166 315.035 187.371 314.583L186.821 304.598ZM161.156 294.537C150.847 286.292 134.301 275.072 127.357 270.514L121.87 278.874C128.776 283.407 144.99 294.412 154.91 302.346L161.156 294.537ZM126.436 270.038C123.462 268.874 119.274 267.393 115.459 266.059C111.564 264.697 108.115 263.506 106.411 262.859L102.859 272.207C104.728 272.917 108.394 274.182 112.158 275.499C116.003 276.843 120.017 278.264 122.791 279.35L126.436 270.038ZM83.7133 181.238L120.756 191.164L123.345 181.504L86.3015 171.579L83.7133 181.238ZM121.415 192.304L98.4933 277.849L108.153 280.437L131.074 194.892L121.415 192.304ZM97.3529 278.507L60.3097 268.581L57.7215 278.241L94.7647 288.166L97.3529 278.507ZM59.6512 267.441L82.5728 181.896L72.9136 179.308L49.992 264.853L59.6512 267.441ZM60.3097 268.581C59.8129 268.448 59.5181 267.938 59.6512 267.441L49.992 264.853C48.4295 270.684 51.8901 276.678 57.7215 278.241L60.3097 268.581ZM98.4933 277.849C98.3602 278.345 97.8496 278.64 97.3529 278.507L94.7647 288.166C100.596 289.729 106.59 286.268 108.153 280.437L98.4933 277.849ZM120.756 191.164C121.253 191.297 121.548 191.807 121.415 192.304L131.074 194.892C132.637 189.061 129.176 183.067 123.345 181.504L120.756 191.164ZM86.3015 171.579C80.4701 170.016 74.4761 173.477 72.9136 179.308L82.5728 181.896C82.7059 181.4 83.2166 181.105 83.7133 181.238L86.3015 171.579Z" fill="white"/>
</svg>
