<svg width="551" height="551" viewBox="0 0 551 551" fill="none" xmlns="http://www.w3.org/2000/svg">
<circle cx="275.578" cy="275.018" r="267.5" fill="#1C435C" stroke="white" stroke-width="15"/>
<path d="M244.013 256.871C244.013 248.035 251.177 240.871 260.013 240.871H448.295C457.131 240.871 464.295 248.035 464.295 256.871V288.191H244.013V256.871Z" fill="#7D8F9B"/>
<path d="M244.013 288.191H464.295V423.614C464.295 432.451 457.131 439.614 448.295 439.614H260.013C251.177 439.614 244.013 432.451 244.013 423.614V288.191Z" fill="#D1D8DC"/>
<rect x="278.442" y="226.675" width="28.3918" height="28.3918" rx="4" fill="#143245"/>
<rect x="401.474" y="226.675" width="28.3918" height="28.3918" rx="4" fill="#143245"/>
<rect x="298.317" y="327.527" width="28.3918" height="28.3918" rx="4" fill="#143245"/>
<rect x="256.675" y="371.886" width="28.3918" height="28.3918" rx="4" fill="#94A3AD"/>
<rect x="423.241" y="371.886" width="28.3918" height="28.3918" rx="4" fill="#C4C4C4"/>
<rect x="381.599" y="327.527" width="28.3918" height="28.3918" rx="4" fill="#C4C4C4"/>
<rect x="339.958" y="371.886" width="28.3918" height="28.3918" rx="4" fill="#143245"/>
<rect x="339.958" y="327.527" width="28.3918" height="28.3918" rx="4" fill="#94A3AD"/>
<rect x="298.317" y="371.886" width="28.3918" height="28.3918" rx="4" fill="#C4C4C4"/>
<rect x="423.241" y="327.527" width="28.3918" height="28.3918" rx="4" fill="#143245"/>
<rect x="381.599" y="371.886" width="28.3918" height="28.3918" rx="4" fill="#94A3AD"/>
<path d="M215.525 367.748C144.466 367.748 86.8619 310.144 86.8619 239.085C86.8619 168.026 144.466 110.422 215.525 110.422C257.522 110.422 294.819 130.543 318.302 161.671M222.322 155.968V236.134M222.322 236.134V238.666M222.322 236.134L224.07 234.31M222.322 236.134L163.84 297.149" stroke="white" stroke-width="15"/>
</svg>
