<svg width="551" height="551" viewBox="0 0 551 551" fill="none" xmlns="http://www.w3.org/2000/svg">
<circle cx="275.978" cy="275.999" r="267.5" fill="#1C435C" stroke="white" stroke-width="15"/>
<path d="M210.832 262.228V186.747C210.832 172.939 222.024 161.747 235.832 161.747H390.482C404.29 161.747 415.482 172.939 415.482 186.747V276.978" stroke="white" stroke-width="15" stroke-linejoin="round"/>
<path d="M168.813 259.661H216.172C228.22 263.103 254.7 271.162 264.243 275.863C273.786 280.563 314.51 280.67 333.679 280.136C340.385 281.441 354.403 288.61 356.824 306.842M356.824 306.842C359.851 329.631 273.323 324.646 262.107 324.112M356.824 306.842L418.124 273.443C460.809 252.222 477.438 284.362 450.21 311.308C407.837 337.005 325.809 384.645 317.121 387.494C306.261 391.055 290.593 392.835 266.201 382.153C246.688 373.607 215.935 362.924 202.997 358.651C192.908 357.524 174.463 356.415 168.209 355.779M98.2338 384.538H161.311C166.699 384.538 171.066 380.17 171.066 374.783V229.118C171.066 223.73 166.699 219.362 161.311 219.362H98.2338C92.846 219.362 88.4783 223.73 88.4783 229.118V374.783C88.4783 380.17 92.846 384.538 98.2338 384.538Z" stroke="white" stroke-width="15" stroke-linejoin="round"/>
<path d="M319.853 229.352L309.073 240.131C308.683 240.522 308.683 241.155 309.073 241.545L318.146 250.618C318.776 251.248 319.853 250.801 319.853 249.91V206.184C319.853 205.919 319.747 205.665 319.56 205.477L309.073 194.991C308.683 194.6 308.683 193.967 309.073 193.576L319.146 183.504C319.536 183.114 320.169 183.114 320.56 183.504L331.339 194.284M309.004 219.539H330.023" stroke="white" stroke-width="8"/>
<path d="M317.451 247.028L312.012 241.589C311.633 241.21 311.62 240.599 311.984 240.204L317.423 234.302C318.04 233.632 319.158 234.069 319.158 234.98V246.321C319.158 247.212 318.081 247.658 317.451 247.028Z" fill="#1C435C" stroke="#1C435C"/>
</svg>
