<svg width="87" height="86" viewBox="0 0 87 86" fill="none" xmlns="http://www.w3.org/2000/svg">
<path d="M86.3358 42.0716C86.0932 41.4477 86.4398 41.1358 86.5785 40.5813C86.7171 40.0268 86.2665 38.2938 86.2665 38.2938C86.2665 38.2938 84.8109 32.298 84.3603 31.1196C84.1697 30.6209 83.7556 30.2779 83.3413 30.0475C83.3132 29.8946 83.2726 29.7959 83.2166 29.7679C82.8152 29.567 81.8151 29.1309 81.1486 29.0104C81.024 28.7962 80.8762 28.5963 80.7079 28.4144C80.8249 28.1898 80.8791 27.9377 80.8649 27.6849C80.8224 27.031 80.3272 26.445 80.3917 25.793C80.4405 25.2984 80.8021 24.8922 80.9416 24.4152C81.0001 24.201 81.0139 23.977 80.9823 23.7572C80.9506 23.5374 80.8741 23.3265 80.7575 23.1375C80.86 23.2466 80.9625 23.3557 81.065 23.4647C81.2045 23.2557 81.2716 23.0068 81.2561 22.756C81.2407 22.5052 81.1434 22.2664 80.9793 22.0761C80.6547 21.7175 80.1118 21.583 79.8599 21.17C79.6011 20.7456 79.74 20.169 79.4953 19.7364C78.8958 18.6765 77.361 19.4278 76.4417 19.0579C76.0639 18.9059 75.7767 18.7386 75.3517 18.7506C74.9902 18.7713 74.633 18.8381 74.2884 18.9492C73.7942 19.0922 73.3641 19.4005 73.0699 19.8226C73.0989 19.7896 73.1308 19.7591 73.1651 19.7316C73.3878 19.5571 73.7785 19.5716 73.8962 19.829C73.9242 19.8937 73.936 19.9643 73.9305 20.0346C73.9111 20.3449 73.6401 20.5767 73.3707 20.732C73.1013 20.8873 72.7983 21.0172 72.6225 21.2736C72.3324 21.6968 72.503 22.2648 72.5031 22.7779C72.5007 23.104 72.4252 23.4254 72.2822 23.7184C72.1392 24.0115 71.9322 24.2687 71.6766 24.4712L72.6546 24.0714C72.1877 24.8887 71.8811 25.7877 71.7514 26.72L73.0737 25.6276C72.584 26.4071 72.2864 27.2917 72.2053 28.2086L73.2667 27.1211C73.315 27.206 73.3392 27.3026 73.3367 27.4003L73.226 27.8272C73.1869 27.9119 73.1436 27.9946 73.0961 28.075C72.9253 28.3682 72.7488 28.7292 72.9085 29.0287L72.9093 29.0283C72.7411 29.594 72.4875 30.16 71.9232 30.4351C72.5491 30.5006 73.2023 30.1877 73.4849 29.6896C73.531 29.7792 73.5867 29.8636 73.651 29.9412C73.6691 29.9639 73.6871 29.9865 73.705 30.0091L73.5491 30.1131L73.1311 30.3918C73.1311 30.3918 70.3931 30.9463 70.5664 31.986C70.5735 32.0288 70.582 32.0799 70.5917 32.1371L69.8039 33.4763L68.6602 37.358C68.6602 37.358 68.071 38.6057 68.1749 39.1256C68.2789 39.6455 68.1749 39.8534 68.1749 40.7892C68.1749 41.725 67.7244 42.1062 68.1749 42.8687C68.6255 43.6312 69.9772 45.8493 69.9772 45.8493L70.2741 46.072C70.2596 46.2057 70.2647 46.3409 70.2891 46.4732C70.5664 47.8595 73.1657 61.1336 73.1657 61.1336C73.1657 61.1336 71.8487 71.635 74.5174 72.2935C74.8521 72.3761 75.1808 72.451 75.5001 72.5177L75.9037 75.1701L75.6611 78.532C75.6611 78.532 73.8242 82.691 77.1861 82.9336C80.5479 83.1762 79.023 79.3291 79.023 79.3291C79.2004 79.0006 79.273 78.6257 79.2309 78.2547C79.1966 77.9462 78.908 76.3407 78.6251 74.7965C79.9009 74.6436 79.6622 73.2895 79.4922 72.6942C79.5658 72.6512 79.6208 72.5826 79.6468 72.5015C79.6852 72.3632 79.5958 71.8193 79.4335 71.0572C79.3014 70.2995 79.0756 69.073 78.9215 68.2421L79.7508 68.3771L83.2513 47.8595C83.2513 47.8595 83.2744 47.5329 83.2638 47.0551C83.7424 46.8076 84.236 46.5901 84.7416 46.4038C85.8853 45.9533 86.3358 44.2897 86.7171 43.5965C87.0983 42.9034 86.5785 42.6954 86.3358 42.0716ZM73.9073 29.0079C74.0205 28.9299 74.1533 28.8848 74.2907 28.8779C74.2611 29.0391 73.9838 29.0862 73.7513 29.1706C73.794 29.1082 73.8467 29.0532 73.9073 29.0079ZM72.1606 39.3336C72.4414 39.7949 71.933 41.045 71.4749 42.037C71.2124 41.8107 70.9384 41.8821 71.2595 41.2398C71.4785 40.8328 71.6085 40.3838 71.6408 39.9228C71.6408 39.8435 71.6814 39.2613 72.0229 39.0194C72.0588 39.1282 72.105 39.2334 72.1606 39.3336ZM71.1088 43.3151C71.2677 43.2504 71.5083 43.1511 71.8333 43.0406C71.6776 43.2449 71.4998 43.4883 71.3211 43.7541C71.2536 43.7029 71.1991 43.6364 71.1622 43.5601C71.1253 43.4838 71.107 43.3998 71.1088 43.3151ZM82.3501 43.7698C82.1394 43.546 81.9692 43.3457 81.829 43.1665C82.0904 43.2353 82.3566 43.3093 82.6274 43.3886C82.7624 43.4087 82.9001 43.3996 83.0312 43.3617C83.0433 43.6013 83.0433 43.9431 83.0433 43.9431L82.6637 44.2059C82.5772 44.0484 82.4719 43.902 82.3501 43.7698V43.7698ZM83.4257 42.5678C83.4217 42.5714 83.4173 42.5754 83.4131 42.5791C83.3945 42.4421 83.3635 42.307 83.3206 42.1756C83.0934 41.4592 82.9721 40.1882 82.9075 39.1036L83.5632 41.3091C83.5632 41.3091 83.5979 42.4182 83.4257 42.5678Z" fill="#043347"/>
<path d="M69.9629 33.4581C69.9629 33.4581 66.4072 27.3468 66.2961 26.6801C66.185 26.0134 64.4071 24.7911 64.4071 24.7911C63.7997 24.1837 62.8031 23.9915 61.7542 24.0015C62.1492 23.6747 60.739 23.4551 60.6292 23.2355C60.5181 23.0133 60.1847 23.0133 59.7403 22.6799C59.2958 22.3466 58.1865 22.6243 58.1863 22.6244C58.0195 22.2735 57.9034 21.9006 57.8416 21.517C58.3151 20.9567 58.5745 20.2467 58.5736 19.5131C58.5736 19.5052 58.573 19.4973 58.573 19.4893C58.6013 19.5334 58.6295 19.5777 58.6578 19.6233C58.866 18.3765 59.2334 17.3401 58.5331 16.2027C58.0367 15.3966 57.2597 14.8025 56.3516 14.5349L55.6846 15.0685L55.9439 14.4461C55.7258 14.4129 55.5051 14.4001 55.2846 14.408L54.6845 15.1796L54.9329 14.4345C54.4122 14.4992 53.9105 14.6711 53.4595 14.9394C53.0085 15.2076 52.618 15.5664 52.3125 15.9931C51.5487 17.0945 51.5999 18.6254 52.3511 19.7354C52.3536 19.7276 52.3556 19.72 52.3581 19.7122C52.3913 20.2315 52.5542 20.7341 52.8319 21.1741C53.1096 21.6141 53.4933 21.9774 53.9478 22.2307L54.1365 23.7404C53.9667 23.8981 53.7488 23.9942 53.5178 24.0133C53.1845 24.0133 52.8511 24.9023 52.8511 24.9023C52.8511 24.9023 52.6622 24.9976 52.4586 25.4477C51.934 25.8048 50.334 26.9265 49.7404 27.7104C49.3892 27.8832 49.012 28.2676 49.0732 29.1247C49.1843 30.6803 49.0732 37.9028 49.0732 37.9028C49.0732 37.9028 48.0732 44.0141 48.4065 44.4586C48.7398 44.9031 48.2954 46.3476 48.2954 46.3476L48.6287 46.4217V46.792C48.6287 46.792 47.6261 51.4399 49.1843 51.2367C51.74 50.9033 49.851 47.1254 49.851 47.1254V46.6933L50.2955 46.792C50.2955 46.792 50.5177 45.2364 50.9622 45.1253C51.1168 45.0867 51.2982 44.6713 51.4692 44.1464C51.5688 44.9653 51.6289 45.4586 51.6289 45.4586L52.3241 45.3041L52.5178 46.0142C52.5655 46.041 52.6155 46.0636 52.6671 46.0819L52.5178 46.9032C52.5178 46.9032 52.4067 47.7921 52.5178 48.3477C52.5738 48.6278 54.6364 54.6168 56.6674 60.4852L56.6291 61.9038C56.6291 61.9038 55.629 63.0149 55.8512 63.7927C56.0735 64.5705 55.2957 71.0152 55.2957 71.0152L54.629 74.2376L54.7967 74.2892L54.6427 74.8538C54.5101 74.9208 54.3921 75.0135 54.2956 75.1265C53.4067 76.1266 52.2955 79.0156 52.2955 79.0156C52.2955 79.0156 50.2955 82.0157 53.4067 81.9046C56.5179 81.7935 56.7402 80.6823 56.7402 80.6823C56.7402 80.6823 57.1846 77.7933 57.1846 77.6822C57.1846 77.5711 56.9624 76.4288 56.9624 76.4288L56.8761 76.3337L56.9364 74.9476L57.518 75.1265C57.518 75.1265 58.0736 72.2375 58.518 71.9042C58.6734 71.7877 59.0866 70.4899 59.5585 68.823C60.0408 70.2117 60.5079 75.0135 60.6594 75.4494C60.6057 75.5228 60.5584 75.6006 60.5181 75.6821C60.0186 76.6406 59.4621 77.5682 58.8514 78.46C58.8514 78.46 55.2957 80.5712 58.8514 81.1268C58.8514 81.1268 60.8514 81.2379 61.8515 80.5712C62.8515 79.9045 65.5183 78.9044 65.5183 78.6822C65.5183 78.46 64.8516 75.1932 64.1849 75.5488L63.7383 74.5216L64.1849 74.3487L61.3718 61.7216C61.4383 61.4524 61.4872 61.1792 61.5181 60.9037C61.5181 60.3218 62.9569 48.9916 63.323 46.1178C64.9344 46.5743 66.4072 43.2363 66.4072 43.2363L66.7725 42.5788L67.2962 42.903C67.2962 42.903 67.7406 41.7918 68.4073 41.6807C69.074 41.5696 70.2963 35.6805 70.2963 34.9027C70.2861 34.4033 70.1726 33.9115 69.9629 33.4581ZM64.7858 42.1639C64.6765 41.9903 64.5496 41.8284 64.4071 41.6807C64.6977 40.924 64.9208 40.1432 65.0738 39.3473C65.2961 38.125 64.7405 34.1248 64.7405 34.1248L64.7308 33.8532C65.2761 34.5691 65.9628 35.5236 65.9628 35.7916C65.9628 35.9209 65.9929 36.0485 66.0507 36.1643C66.1086 36.28 66.1926 36.3806 66.2961 36.4583L65.6294 38.7917C65.6294 38.7917 65.1849 39.9028 65.0738 40.4584C65.0072 40.7878 64.9701 41.1225 64.9627 41.4585L65.1202 41.556L64.7858 42.1639Z" fill="#043347"/>
<path d="M19.0937 35.5149L19.6866 35.3815L17.2421 28.4923L11.9641 26.5478C11.9641 26.5478 11.9439 26.5702 11.9066 26.6089C11.4564 26.1732 11.2653 25.5409 11.1855 25.0433C11.6099 24.8718 11.9913 24.6088 12.3023 24.273C12.6134 23.9371 12.8465 23.5368 12.985 23.1005C13.1235 22.6642 13.164 22.2027 13.1036 21.7489C13.0432 21.2951 12.8834 20.8603 12.6355 20.4755C13.0705 20.3711 13.2257 19.9765 13.3717 19.506C13.2813 19.4793 13.1891 19.4593 13.0959 19.446C13.1643 19.2926 13.2327 19.1392 13.3011 18.9858C13.1809 18.9751 13.0606 18.9643 12.9404 18.9535C12.9712 18.8101 13.0019 18.6667 13.0326 18.5233C12.8794 18.6292 12.7261 18.735 12.5728 18.8408C12.6248 18.6903 12.6378 18.529 12.6104 18.3721C12.583 18.2152 12.5162 18.0679 12.4162 17.9439C12.2126 17.6979 11.9471 17.5107 11.647 17.4016C11.0602 17.1707 10.4211 17.106 9.79991 17.2146C9.17872 17.3231 8.59945 17.6008 8.12572 18.017L8.09249 17.8875C7.1544 18.6087 6.54056 19.6724 6.3856 20.8455C6.23843 22.005 6.79546 23.1857 7.51949 24.1033C7.51339 24.0632 7.50685 24.0232 7.50021 23.9833C7.5315 24.0265 7.56382 24.0687 7.59717 24.1102L7.68616 27.4923L7.46326 27.6833C7.4629 27.6835 3.72332 29.3754 3.57755 31.3961L3.57712 31.3976C3.35266 32.3814 3.24154 37.4927 3.24154 37.4927H3.54924L3.24154 39.4928L1.24145 47.2709C1.24145 47.2709 -1.31421 50.6043 0.908107 51.271C2.28906 51.6853 2.68307 50.0831 2.78354 48.8104C2.86354 49.1259 3.10285 49.3391 3.57488 49.3821C3.61203 49.3854 3.6517 49.3882 3.69006 49.3914C2.63928 52.1069 3.35265 60.9381 3.35265 60.9381C2.79707 62.0492 9.3529 69.7162 9.3529 69.7162L9.74765 69.5057L9.83307 69.6765C9.61338 69.6976 9.46401 69.7162 9.46401 69.7162V73.1608C9.46401 73.1608 8.46397 76.6054 9.79736 77.2721C10.1424 77.4446 10.5022 77.3191 10.8462 77.0389C10.7805 78.1019 10.6863 79.6882 10.6863 80.05C10.6863 80.6055 12.1308 81.6056 12.1308 81.6056C12.1308 81.6056 12.4641 82.8279 15.1309 82.8279C17.7977 82.8279 15.7976 79.6055 15.7976 79.6055L14.3531 76.3831C14.3531 76.3831 14.245 76.436 13.9179 76.1697L14.0351 74.8812L14.6864 74.9386L15.5754 61.9381C15.5754 61.9381 16.3532 50.3821 16.4643 48.6042C16.4903 48.0343 16.4769 47.4632 16.4241 46.895L19.6866 40.1595L19.0937 35.5149ZM16.6865 39.8261L16.3532 40.9878V38.4186L16.6865 39.8261ZM2.81452 48.0663C2.81728 47.6591 2.79708 47.382 2.79708 47.382L4.96939 43.0373L4.90828 44.3818C4.90828 44.3818 3.16853 46.5825 2.81452 48.0663ZM7.9084 60.6047L10.0196 53.16L11.2419 62.1603L11.1542 65.4324C11.0054 65.1317 10.8859 64.8174 10.7974 64.4938C10.4641 63.1604 7.9084 60.6047 7.9084 60.6047Z" fill="#043347"/>
<path d="M37.9778 78.2894C36.9367 77.8608 34.9157 76.9421 34.6707 76.4522C34.4257 75.9623 33.2009 72.1652 33.2009 72.1652L32.8855 72.1882C32.8448 70.4633 32.6711 63.7782 32.4048 62.979C32.4048 62.979 33.6908 52.3841 31.1187 48.1584L30.6552 46.2861C30.8073 45.5356 30.7878 43.7976 30.69 43.5041C30.5675 43.1366 32.0986 41.973 31.6699 41.2381C31.2412 40.5032 30.0776 37.9923 30.0776 37.9923C30.0776 37.9923 30.2001 36.4 28.5465 34.9302C28.5465 34.9302 28.0633 32.1946 25.8859 32.1538C25.5915 31.6401 25.1795 30.8232 25.3007 30.4595C25.4305 30.0701 25.9268 28.8561 26.2072 28.1766C26.356 28.1093 26.4991 28.0297 26.6347 27.9387C28.3664 27.1628 29.5872 25.2975 29.5872 23.1186C29.5872 20.7861 28.1887 18.8121 26.2615 18.1502C26.3474 17.9239 26.3825 17.6815 26.3644 17.4402C26.3463 17.1989 26.2754 16.9645 26.1567 16.7536C26.0381 16.5427 25.8746 16.3604 25.6777 16.2196C25.4809 16.0789 25.2556 15.983 25.0176 15.9389C24.7797 15.8948 24.535 15.9034 24.3007 15.9643C24.0665 16.0251 23.8485 16.1366 23.6621 16.291C23.4757 16.4453 23.3255 16.6387 23.2221 16.8575C23.1187 17.0763 23.0645 17.3151 23.0635 17.5571C22.9575 17.3059 22.9154 17.0323 22.9409 16.7608C22.9664 16.4894 23.0587 16.2284 23.2096 16.0013C23.3605 15.7742 23.5652 15.588 23.8056 15.4593C24.046 15.3307 24.3145 15.2635 24.5872 15.2639C24.6945 15.264 24.8016 15.2746 24.9069 15.2954C24.5438 15.1227 24.1302 15.0884 23.7436 15.1988C23.357 15.3092 23.024 15.5568 22.8069 15.8952C22.5898 16.2335 22.5035 16.6395 22.5642 17.0369C22.625 17.4343 22.8286 17.796 23.1368 18.0541C23.1559 18.1145 23.1784 18.1738 23.2043 18.2317C21.3909 18.9635 20.0973 20.8752 20.0973 23.1186C20.0973 25.1995 21.2106 26.9946 22.8192 27.8277C22.8106 28.5046 22.6427 29.6459 21.7092 30.3414C21.227 30.121 20.5578 29.8792 20.1284 29.9889C19.9063 29.8158 19.5712 29.7586 19.1153 30.2146C18.1966 31.1332 17.4005 33.5216 17.4005 34.9914C17.4005 36.4612 17.5842 44.9739 17.5842 44.9739C17.5842 44.9739 16.6043 45.3413 17.278 45.8925C17.4171 46.0084 17.5917 46.0733 17.7728 46.0763L18.4416 51.0368C18.4416 51.0368 18.0129 55.8137 19.6665 55.8749C19.7961 55.882 19.9249 55.8504 20.0366 55.7841L18.8091 61.3254C18.8091 61.3254 15.9919 63.1627 13.7872 66.776C12.6517 68.637 12.0855 69.7819 11.8027 70.456L11.3988 70.2055L9.99023 72.9002C9.99023 72.9002 6.86688 74.7987 7.54055 76.2072C8.21421 77.6158 8.82664 77.9832 8.82664 77.9832L9.25533 77.7995L10.0515 79.2693C10.0515 79.2693 12.1337 82.2702 15.502 80.7391C15.6601 80.5267 15.7454 80.269 15.7454 80.0042C15.7454 79.7395 15.6601 79.4817 15.502 79.2693C14.9508 78.4732 13.5423 76.7584 13.5423 76.7584L14.4609 72.104L14.2708 71.9862L20.0951 64.9387C20.0951 64.9387 21.8099 63.8976 22.4223 62.979C23.0348 62.0604 26.8318 52.5679 26.8318 52.5679L28.9752 62.489C28.9752 62.489 28.8527 66.1023 29.4039 68.4295C29.7043 69.7349 29.9003 71.0622 29.9898 72.3988L29.8326 72.4102L30.2001 75.1661C30.2001 75.1661 28.6078 79.0856 29.7101 79.3918C30.4944 79.5944 31.2928 79.7377 32.0986 79.8205L32.221 79.3918C32.221 79.3918 36.9367 81.964 38.6514 80.0655C38.6514 80.0655 39.0189 78.7181 37.9778 78.2894ZM21.1975 48.2197C21.3812 48.4034 21.32 49.2608 21.32 49.2608L20.9525 51.6492L20.5855 53.3059C20.5348 52.5232 20.4323 51.7447 20.2788 50.9756L20.1093 46.3984C20.1426 46.4194 20.1792 46.4347 20.2176 46.4437C20.3401 46.4437 20.2788 45.4026 20.2788 45.4026C20.2788 45.4026 20.3503 45.2166 20.4395 44.9232C20.6776 45.6359 20.9683 46.101 21.32 46.1987L21.3812 46.9948C21.3812 46.9948 20.5851 47.3623 21.32 47.3623C21.3626 47.3607 21.4049 47.3544 21.4462 47.3435L21.3812 47.6685C21.3812 47.6685 21.0138 48.0359 21.1975 48.2197Z" fill="#043347"/>
<path d="M48.3593 74.8534L48.9003 78.6403L51.6052 78.3698L51.3347 74.4476L48.3593 74.8534Z" fill="#FFB8B8"/>
<path d="M35.5109 74.8534L34.9699 78.6403L32.265 78.3698L32.5354 74.4476L35.5109 74.8534Z" fill="#FFB8B8"/>
<path d="M31.5887 35.6319C31.5887 35.6319 29.1543 38.4721 29.6953 42.9352C30.2363 47.3984 31.183 57.5419 31.183 57.5419L31.8592 75.5297L36.1871 75.2592L36.8633 59.9763L39.0273 47.6689L44.8429 62.005C44.8429 62.005 47.6831 75.3944 47.8183 75.3944C47.9536 75.3944 51.8757 74.9887 51.8757 74.9887L49.9823 59.1648C49.9823 59.1648 47.0068 36.1729 45.2486 35.7672C43.4904 35.3614 31.5887 35.6319 31.5887 35.6319Z" fill="#2F2E41"/>
<path d="M51.8757 77.8288C51.8757 77.8288 49.4413 76.2058 48.4945 78.0993C47.5478 79.9927 48.3593 81.3452 48.3593 81.3452C48.3593 81.3452 49.1708 81.8862 48.765 82.4272C48.3593 82.9682 48.224 86.4846 51.7405 85.9436C55.2569 85.4026 53.4987 81.7509 53.4987 81.7509L51.8757 77.8288Z" fill="#2F2E41"/>
<path d="M31.9945 77.8288C31.9945 77.8288 34.4289 76.2058 35.3756 78.0993C36.3224 79.9927 35.5109 81.3452 35.5109 81.3452C35.5109 81.3452 34.6994 81.8862 35.1051 82.4272C35.5109 82.9682 35.6461 86.4846 32.1297 85.9436C28.6133 85.4026 30.3715 81.7509 30.3715 81.7509L31.9945 77.8288Z" fill="#2F2E41"/>
<path d="M34.9023 9.32638C34.9023 9.32638 36.1195 12.7075 35.1727 14.601C34.226 16.4945 36.6605 18.6584 36.6605 18.6584C36.6605 18.6584 43.017 15.4125 42.2056 13.7895C41.3941 12.1666 40.0416 10.0026 40.3121 8.65015L34.9023 9.32638Z" fill="#FFB8B8"/>
<path d="M37.2691 10.6112C39.6593 10.6112 41.597 8.67357 41.597 6.28334C41.597 3.89311 39.6593 1.95544 37.2691 1.95544C34.8788 1.95544 32.9412 3.89311 32.9412 6.28334C32.9412 8.67357 34.8788 10.6112 37.2691 10.6112Z" fill="#FFB8B8"/>
<path d="M34.1584 14.3981C34.1584 14.3981 38.5009 18.0117 41.7395 12.8914L45.1134 14.8039L46.8716 35.3614C46.8716 35.3614 36.9986 41.0417 32.265 36.1728L32.9412 17.1031L34.1584 14.3981Z" fill="#043347"/>
<path d="M35.5221 12.3738L29.4248 16.4267L31.5887 26.435L28.7485 41.9883L33.3469 35.0908L35.5221 12.3738Z" fill="#575A89"/>
<path d="M40.9109 11.2457L42.4084 12.2342L48.4945 14.3981L47.5478 31.1687L50.1175 41.9884L46.4658 43.8819C46.4658 43.8819 45.7896 38.7425 41.597 36.1728C37.4043 33.6031 39.9543 12.0155 40.9109 11.2457Z" fill="#575A89"/>
<path d="M30.7772 37.5253L32.5354 38.7425C32.5354 38.7425 30.3039 41.1093 29.8981 40.7036C29.7807 40.5908 29.6895 40.4536 29.6311 40.3017C29.5727 40.1498 29.5484 39.9868 29.56 39.8245L29.1543 38.8777L30.7772 37.5253Z" fill="#FFB8B8"/>
<path d="M42.4652 37.2622L41.8674 38.2016C41.8674 38.2016 40.1092 39.013 40.515 39.554C40.9207 40.095 44.3019 41.3122 44.9781 40.095L45.6544 38.8778L42.4652 37.2622Z" fill="#FFB8B8"/>
<path d="M30.2362 16.2916L29.2895 16.4269L27.7342 26.5027C27.7342 26.5027 27.1256 28.3286 27.8018 32.6565C28.478 36.9844 29.1477 39.8026 29.1477 39.8026L32.1297 37.6606L30.7772 34.1442L32.5354 21.2958L30.2362 16.2916Z" fill="#575A89"/>
<path d="M46.3306 14.1276L48.4945 14.3981C48.4945 14.3981 50.929 16.9677 51.3347 19.6727C51.7405 22.3776 51.6052 30.0867 51.6052 30.0867L45.3839 39.9597L42.0027 37.5252L46.7363 29.1399L44.4371 19.1317L46.3306 14.1276Z" fill="#575A89"/>
<path d="M41.3962 2.36896C40.7417 1.30621 39.7173 0.52307 38.5201 0.17028L37.6408 0.873739L37.9827 0.0532333C37.6952 0.00937502 37.4042 -0.00744191 37.1136 0.0030028L36.3224 1.02023L36.6498 0.0378463C35.9633 0.123161 35.3019 0.349798 34.7074 0.703464C34.1128 1.05713 33.5979 1.53015 33.1953 2.09271C32.1883 3.54466 32.0184 5.56386 33.0088 7.02717C33.2807 6.19167 33.6107 5.40769 33.8825 4.57218C34.0962 4.60131 34.3128 4.60237 34.5267 4.57532L34.8575 3.80352L34.9499 4.54268C35.9751 4.45335 37.4958 4.25725 38.4677 4.07758L38.3732 3.51054L38.9387 3.98175C39.2365 3.91319 39.4133 3.85103 39.3987 3.80352C40.1215 4.96886 40.8378 5.71319 41.5606 6.87852C41.835 5.23477 42.3194 3.86844 41.3962 2.36896Z" fill="#2F2E41"/>
<path d="M41.1565 6.73331C41.3183 6.73331 41.4495 6.47097 41.4495 6.14736C41.4495 5.82374 41.3183 5.5614 41.1565 5.5614C40.9947 5.5614 40.8635 5.82374 40.8635 6.14736C40.8635 6.47097 40.9947 6.73331 41.1565 6.73331Z" fill="#FFB8B8"/>
</svg>
