<svg width="1051" height="1043" viewBox="0 0 1051 1043" fill="none" xmlns="http://www.w3.org/2000/svg">
<rect x="30.3263" y="697.676" width="315" height="315" stroke="black" stroke-width="60"/>
<rect x="143.881" y="811.231" width="87.8906" height="87.8906" fill="black"/>
<rect x="30.3263" y="30.6973" width="315" height="315" stroke="black" stroke-width="60"/>
<rect x="143.881" y="144.252" width="87.8906" height="87.8906" fill="black"/>
<rect x="705.326" y="30.6973" width="315" height="315" stroke="black" stroke-width="60"/>
<rect x="818.881" y="144.252" width="87.8906" height="87.8906" fill="black"/>
<path d="M450.326 0.697266H600.326V75.6973H450.326V0.697266Z" fill="black"/>
<path d="M450.326 292.676H600.326V367.676H450.326V292.676Z" fill="black"/>
<path d="M675.326 667.676H825.326V742.676H675.326V667.676Z" fill="black"/>
<path d="M600.326 967.676H750.326V1042.68H600.326V967.676Z" fill="black"/>
<path d="M900.326 517.676H1050.33V592.676H900.326V517.676Z" fill="black"/>
<path d="M825.326 817.676H975.326V892.676H825.326V817.676Z" fill="black"/>
<path d="M300.326 517.676H450.326V592.676H300.326V517.676Z" fill="black"/>
<path d="M525.326 75.6973V225.697H450.326V75.6973H525.326Z" fill="black"/>
<path d="M600.326 142.676V292.676H525.326V142.676H600.326Z" fill="black"/>
<path d="M825.326 442.676V592.676H750.326V442.676H825.326Z" fill="black"/>
<path d="M900.326 667.676V817.676H825.326L825.326 667.676H900.326Z" fill="black"/>
<path d="M525.326 817.676V967.676H450.326V817.676H525.326Z" fill="black"/>
<path d="M975.326 592.676V742.676H900.326L900.326 592.676H975.326Z" fill="black"/>
<path d="M825.326 892.676L825.326 1042.68H750.326V892.676H825.326Z" fill="black"/>
<path d="M300.326 442.676V592.676H225.326V442.676H300.326Z" fill="black"/>
<path d="M525.326 517.676V667.676H450.326V517.676H525.326Z" fill="black"/>
<path d="M450.326 367.676H525.326V442.676H450.326V367.676Z" fill="black"/>
<path d="M525.326 442.676H600.326V517.676H525.326V442.676Z" fill="black"/>
<path d="M600.326 592.676H675.326V667.676H600.326V592.676Z" fill="black"/>
<path d="M975.326 442.676H1050.33V517.676H975.326V442.676Z" fill="black"/>
<path d="M600.326 742.676H675.326V817.676H600.326V742.676Z" fill="black"/>
<path d="M975.326 742.676H1050.33V817.676H975.326V742.676Z" fill="black"/>
<path d="M975.326 892.676H1050.33V967.676H975.326V892.676Z" fill="black"/>
<path d="M900.326 967.676H975.326V1042.68H900.326V967.676Z" fill="black"/>
<path d="M675.326 817.676H750.326V892.676H675.326V817.676Z" fill="black"/>
<path d="M525.326 817.676H600.326V892.676H525.326V817.676Z" fill="black"/>
<path d="M450.326 742.676H525.326V817.676H450.326V742.676Z" fill="black"/>
<path d="M525.326 967.676H600.326V1042.68H525.326V967.676Z" fill="black"/>
<path d="M525.326 667.676H600.326V742.676H525.326V667.676Z" fill="black"/>
<path d="M675.326 442.676H750.326V517.676H675.326V442.676Z" fill="black"/>
<path d="M150.326 442.676H225.326V517.676H150.326V442.676Z" fill="black"/>
<path d="M75.3263 517.676H150.326V592.676H75.3263V517.676Z" fill="black"/>
<path d="M0.326294 442.676H75.3263V517.676H0.326294V442.676Z" fill="black"/>
</svg>
