<svg width="1301" height="1293" viewBox="0 0 1301 1293" fill="none" xmlns="http://www.w3.org/2000/svg">
<rect x="155.008" y="822.697" width="315" height="315" stroke="black" stroke-width="60"/>
<rect x="268.562" y="936.252" width="87.8906" height="87.8906" fill="black"/>
<rect x="155.008" y="155.718" width="315" height="315" stroke="black" stroke-width="60"/>
<rect x="268.562" y="269.273" width="87.8906" height="87.8906" fill="black"/>
<rect x="830.008" y="155.718" width="315" height="315" stroke="black" stroke-width="60"/>
<rect x="943.562" y="269.273" width="87.8906" height="87.8906" fill="black"/>
<rect x="575.008" y="125.718" width="150" height="75" fill="black"/>
<rect x="575.008" y="417.697" width="150" height="75" fill="black"/>
<rect x="800.008" y="792.697" width="150" height="75" fill="black"/>
<rect x="725.008" y="1092.7" width="150" height="75" fill="black"/>
<rect x="1025.01" y="642.697" width="150" height="75" fill="black"/>
<rect x="950.008" y="942.697" width="150" height="75" fill="black"/>
<rect x="425.008" y="642.697" width="150" height="75" fill="black"/>
<rect x="650.008" y="200.718" width="150" height="75" transform="rotate(90 650.008 200.718)" fill="black"/>
<rect x="725.008" y="267.697" width="150" height="75" transform="rotate(90 725.008 267.697)" fill="black"/>
<rect x="950.008" y="567.697" width="150" height="75" transform="rotate(90 950.008 567.697)" fill="black"/>
<rect x="1025.01" y="792.697" width="150" height="75" transform="rotate(90 1025.01 792.697)" fill="black"/>
<rect x="650.008" y="942.697" width="150" height="75" transform="rotate(90 650.008 942.697)" fill="black"/>
<rect x="1100.01" y="717.697" width="150" height="75" transform="rotate(90 1100.01 717.697)" fill="black"/>
<rect x="950.008" y="1017.7" width="150" height="75" transform="rotate(90 950.008 1017.7)" fill="black"/>
<rect x="425.008" y="567.697" width="150" height="75" transform="rotate(90 425.008 567.697)" fill="black"/>
<rect x="650.008" y="642.697" width="150" height="75" transform="rotate(90 650.008 642.697)" fill="black"/>
<rect x="575.008" y="492.697" width="75" height="75" fill="black"/>
<rect x="650.008" y="567.697" width="75" height="75" fill="black"/>
<rect x="725.008" y="717.697" width="75" height="75" fill="black"/>
<rect x="1100.01" y="567.697" width="75" height="75" fill="black"/>
<rect x="725.008" y="867.697" width="75" height="75" fill="black"/>
<rect x="1100.01" y="867.697" width="75" height="75" fill="black"/>
<rect x="1100.01" y="1017.7" width="75" height="75" fill="black"/>
<rect x="1025.01" y="1092.7" width="75" height="75" fill="black"/>
<rect x="800.008" y="942.697" width="75" height="75" fill="black"/>
<rect x="650.008" y="942.697" width="75" height="75" fill="black"/>
<rect x="575.008" y="867.697" width="75" height="75" fill="black"/>
<rect x="650.008" y="1092.7" width="75" height="75" fill="black"/>
<rect x="650.008" y="792.697" width="75" height="75" fill="black"/>
<rect x="800.008" y="567.697" width="75" height="75" fill="black"/>
<rect x="275.008" y="567.697" width="75" height="75" fill="black"/>
<rect x="200.008" y="642.697" width="75" height="75" fill="black"/>
<rect x="125.008" y="567.697" width="75" height="75" fill="black"/>
<path d="M1075.01 25.7183H1271.01C1273.22 25.7183 1275.01 27.5091 1275.01 29.7183V225.718" stroke="black" stroke-width="50" stroke-linecap="round"/>
<path d="M225.008 25.7183H29.0077C26.7985 25.7183 25.0077 27.5091 25.0077 29.7183V225.718" stroke="black" stroke-width="50" stroke-linecap="round"/>
<path d="M1275.01 1067.7L1275.01 1263.7C1275.01 1265.91 1273.22 1267.7 1271.01 1267.7L1075.01 1267.7" stroke="black" stroke-width="50" stroke-linecap="round"/>
<path d="M25.0077 1067.7L25.0077 1263.7C25.0077 1265.91 26.7985 1267.7 29.0077 1267.7L225.008 1267.7" stroke="black" stroke-width="50" stroke-linecap="round"/>
</svg>
