<svg width="83" height="83" viewBox="0 0 83 83" fill="none" xmlns="http://www.w3.org/2000/svg">
<path d="M41.5 83C64.4198 83 83 64.4198 83 41.5C83 18.5802 64.4198 0 41.5 0C18.5802 0 0 18.5802 0 41.5C0 64.4198 18.5802 83 41.5 83Z" fill="#043347"/>
<path d="M37.3876 57.3311C36.4539 57.3326 35.5451 57.0306 34.7982 56.4705L34.7518 56.4357L24.9988 48.975C24.5471 48.6287 24.168 48.1968 23.8832 47.704C23.5984 47.2112 23.4135 46.6671 23.3389 46.1029C23.2644 45.5386 23.3017 44.9652 23.4488 44.4153C23.5959 43.8655 23.8498 43.35 24.1961 42.8983C24.5424 42.4466 24.9743 42.0675 25.4671 41.7827C25.9599 41.4979 26.5039 41.313 27.0682 41.2384C27.6325 41.1639 28.2059 41.2012 28.7558 41.3483C29.3056 41.4954 29.8211 41.7493 30.2728 42.0956L36.59 46.94L51.518 27.4648C51.8642 27.0133 52.2959 26.6343 52.7885 26.3497C53.2811 26.065 53.8249 25.8801 54.3889 25.8056C54.953 25.7311 55.5262 25.7684 56.0758 25.9155C56.6254 26.0625 57.1407 26.3163 57.5922 26.6625L57.5934 26.6634L57.5008 26.7921L57.596 26.6634C58.5069 27.3635 59.1028 28.3964 59.2531 29.5354C59.4033 30.6744 59.0956 31.8265 58.3973 32.7388L40.8388 55.6357C40.4325 56.1633 39.9103 56.5902 39.3124 56.8833C38.7146 57.1764 38.0572 57.3279 37.3914 57.3259L37.3876 57.3311Z" fill="#D4F1F4"/>
</svg>
